<?xml version="1.0" encoding="UTF-8"?>
<!DOCTYPE svg PUBLIC "-//W3C//DTD SVG 1.1//EN" "http://www.w3.org/Graphics/SVG/1.1/DTD/svg11.dtd">
<!-- Creator: CorelDRAW -->
<svg xmlns="http://www.w3.org/2000/svg" xml:space="preserve" width="512px" height="522px" version="1.1" style="shape-rendering:geometricPrecision; text-rendering:geometricPrecision; image-rendering:optimizeQuality; fill-rule:evenodd; clip-rule:evenodd"
viewBox="0 0 47.66 48.59"
 xmlns:xlink="http://www.w3.org/1999/xlink"
 xmlns:xodm="http://www.corel.com/coreldraw/odm/2003">
 <defs>
  <style type="text/css">
   <![CDATA[
    .fil0 {fill:#1A1A1A}
    .fil1 {fill:#333333}
    .fil2 {fill:#1A1A1A;fill-rule:nonzero}
   ]]>
  </style>
 </defs>
 <g id="Слой_x0020_1">
  <metadata id="CorelCorpID_0Corel-Layer"/>
  <rect class="fil0" width="47.66" height="48.59"/>
  <g id="_2353400716736">
   <polygon class="fil1" points="0,0 7.94,0 7.94,3.47 0,3.47 "/>
   <path class="fil2" d="M0.72 2.6l0.6 -0.9 -0.54 -0.83 0.4 0 0.35 0.52 0.34 -0.52 0.41 0 -0.55 0.83 0.6 0.9 -0.42 0 -0.38 -0.58 -0.39 0.58 -0.42 0zm3.35 0l-0.38 0 -0.15 -0.39 -0.69 0 -0.15 0.39 -0.37 0 0.68 -1.73 0.37 0 0.69 1.73zm-0.64 -0.68l-0.24 -0.65 -0.23 0.65 0.47 0zm1.88 0.04l0.33 0.11c-0.05,0.19 -0.13,0.33 -0.26,0.42 -0.12,0.1 -0.27,0.14 -0.46,0.14 -0.23,0 -0.41,-0.08 -0.56,-0.23 -0.15,-0.16 -0.23,-0.38 -0.23,-0.65 0,-0.29 0.08,-0.51 0.23,-0.67 0.15,-0.16 0.34,-0.24 0.59,-0.24 0.21,0 0.38,0.06 0.51,0.19 0.08,0.07 0.14,0.18 0.18,0.32l-0.35 0.08c-0.02,-0.09 -0.06,-0.16 -0.12,-0.21 -0.07,-0.06 -0.15,-0.08 -0.24,-0.08 -0.13,0 -0.23,0.04 -0.31,0.14 -0.08,0.09 -0.12,0.24 -0.12,0.44 0,0.22 0.03,0.38 0.11,0.47 0.08,0.1 0.18,0.14 0.31,0.14 0.09,0 0.17,-0.03 0.24,-0.09 0.07,-0.06 0.12,-0.15 0.15,-0.28zm0.7 -1.09l1.21 0 0 1.73 -0.35 0 0 -1.44 -0.52 0 0 0.74c0,0.21 -0.01,0.36 -0.02,0.45 -0.01,0.08 -0.05,0.15 -0.1,0.19 -0.06,0.05 -0.14,0.07 -0.26,0.07 -0.04,0 -0.11,0 -0.22,-0.01l0 -0.27 0.08 0c0.07,0 0.12,-0.01 0.14,-0.03 0.03,-0.02 0.04,-0.07 0.04,-0.14l0 -0.3 0 -0.99z"/>
  </g>
  <g id="_2353400720336">
   <polygon class="fil1" points="15.89,0 23.83,0 23.83,3.47 15.89,3.47 "/>
   <path class="fil2" d="M16.61 2.6l0.6 -0.9 -0.55 -0.83 0.41 0 0.34 0.52 0.34 -0.52 0.41 0 -0.54 0.83 0.6 0.9 -0.42 0 -0.39 -0.58 -0.38 0.58 -0.42 0zm3.35 0l-0.38 0 -0.15 -0.39 -0.69 0 -0.15 0.39 -0.37 0 0.67 -1.73 0.37 0 0.7 1.73zm-0.64 -0.68l-0.24 -0.65 -0.24 0.65 0.48 0zm1.87 0.04l0.34 0.11c-0.05,0.19 -0.14,0.33 -0.26,0.42 -0.12,0.1 -0.27,0.14 -0.46,0.14 -0.23,0 -0.42,-0.08 -0.57,-0.23 -0.14,-0.16 -0.22,-0.38 -0.22,-0.65 0,-0.29 0.08,-0.51 0.23,-0.67 0.14,-0.16 0.34,-0.24 0.58,-0.24 0.22,0 0.39,0.06 0.52,0.19 0.08,0.07 0.14,0.18 0.18,0.32l-0.35 0.08c-0.02,-0.09 -0.06,-0.16 -0.13,-0.21 -0.06,-0.06 -0.14,-0.08 -0.23,-0.08 -0.13,0 -0.24,0.04 -0.32,0.14 -0.08,0.09 -0.12,0.24 -0.12,0.44 0,0.22 0.04,0.38 0.12,0.47 0.08,0.1 0.18,0.14 0.31,0.14 0.09,0 0.17,-0.03 0.24,-0.09 0.07,-0.06 0.11,-0.15 0.14,-0.28zm0.71 -1.09l1.21 0 0 1.73 -0.35 0 0 -1.44 -0.52 0 0 0.74c0,0.21 -0.01,0.36 -0.02,0.45 -0.02,0.08 -0.05,0.15 -0.1,0.19 -0.06,0.05 -0.15,0.07 -0.26,0.07 -0.04,0 -0.12,0 -0.23,-0.01l0 -0.27 0.08 0c0.08,0 0.13,-0.01 0.15,-0.03 0.03,-0.02 0.04,-0.07 0.04,-0.14l0 -0.3 0 -0.99z"/>
  </g>
  <g id="_2353400732576">
   <polygon class="fil1" points="7.94,3.47 15.89,3.47 15.89,6.94 7.94,6.94 "/>
   <path class="fil2" d="M8.66 6.07l0.6 -0.9 -0.54 -0.83 0.41 0 0.34 0.52 0.34 -0.52 0.41 0 -0.54 0.83 0.59 0.9 -0.42 0 -0.38 -0.58 -0.38 0.58 -0.43 0zm3.35 0l-0.37 0 -0.15 -0.39 -0.7 0 -0.14 0.39 -0.37 0 0.67 -1.73 0.37 0 0.69 1.73zm-0.64 -0.68l-0.24 -0.65 -0.23 0.65 0.47 0zm1.88 0.04l0.34 0.11c-0.05,0.19 -0.14,0.33 -0.26,0.42 -0.12,0.1 -0.28,0.14 -0.46,0.14 -0.23,0 -0.42,-0.08 -0.57,-0.23 -0.15,-0.16 -0.22,-0.38 -0.22,-0.65 0,-0.29 0.07,-0.51 0.22,-0.67 0.15,-0.16 0.35,-0.24 0.59,-0.24 0.21,0 0.38,0.06 0.52,0.19 0.08,0.07 0.13,0.18 0.17,0.32l-0.34 0.08c-0.02,-0.09 -0.07,-0.16 -0.13,-0.21 -0.07,-0.05 -0.14,-0.08 -0.24,-0.08 -0.13,0 -0.23,0.05 -0.31,0.14 -0.08,0.09 -0.12,0.24 -0.12,0.45 0,0.21 0.04,0.37 0.12,0.46 0.08,0.1 0.18,0.14 0.3,0.14 0.1,0 0.18,-0.03 0.25,-0.09 0.06,-0.06 0.11,-0.15 0.14,-0.28zm0.7 -1.09l1.22 0 0 1.73 -0.35 0 0 -1.44 -0.52 0 0 0.74c0,0.22 -0.01,0.36 -0.03,0.45 -0.01,0.08 -0.04,0.15 -0.1,0.19 -0.05,0.05 -0.14,0.07 -0.26,0.07 -0.04,0 -0.11,0 -0.22,-0.01l0 -0.27 0.08 0c0.07,0 0.12,-0.01 0.15,-0.03 0.02,-0.02 0.03,-0.07 0.03,-0.14l0 -0.3 0 -0.99z"/>
  </g>
  <g id="_2353400742608">
   <polygon class="fil1" points="23.83,3.47 31.78,3.47 31.78,6.94 23.83,6.94 "/>
   <path class="fil2" d="M24.55 6.07l0.6 -0.9 -0.54 -0.83 0.41 0 0.34 0.52 0.34 -0.52 0.41 0 -0.55 0.83 0.6 0.9 -0.42 0 -0.38 -0.58 -0.39 0.58 -0.42 0zm3.35 0l-0.38 0 -0.15 -0.39 -0.69 0 -0.14 0.39 -0.38 0 0.68 -1.73 0.37 0 0.69 1.73zm-0.64 -0.68l-0.24 -0.65 -0.23 0.65 0.47 0zm1.88 0.04l0.34 0.11c-0.06,0.19 -0.14,0.33 -0.26,0.42 -0.12,0.1 -0.28,0.14 -0.46,0.14 -0.23,0 -0.42,-0.08 -0.57,-0.23 -0.15,-0.16 -0.22,-0.38 -0.22,-0.65 0,-0.29 0.07,-0.51 0.22,-0.67 0.15,-0.16 0.34,-0.24 0.59,-0.24 0.21,0 0.38,0.06 0.51,0.19 0.08,0.07 0.14,0.18 0.18,0.32l-0.34 0.08c-0.03,-0.09 -0.07,-0.16 -0.13,-0.21 -0.07,-0.05 -0.15,-0.08 -0.24,-0.08 -0.13,0 -0.23,0.05 -0.31,0.14 -0.08,0.09 -0.12,0.24 -0.12,0.45 0,0.21 0.04,0.37 0.11,0.46 0.08,0.1 0.19,0.14 0.31,0.14 0.1,0 0.18,-0.03 0.24,-0.09 0.07,-0.06 0.12,-0.15 0.15,-0.28zm0.7 -1.09l1.21 0 0 1.73 -0.35 0 0 -1.44 -0.52 0 0 0.74c0,0.22 0,0.36 -0.02,0.45 -0.01,0.08 -0.05,0.15 -0.1,0.19 -0.06,0.05 -0.14,0.07 -0.26,0.07 -0.04,0 -0.11,0 -0.22,-0.01l0 -0.27 0.08 0c0.07,0 0.12,-0.01 0.14,-0.03 0.03,-0.02 0.04,-0.07 0.04,-0.14l0 -0.3 0 -0.99z"/>
  </g>
  <g id="_2353400743712">
   <polygon class="fil1" points="31.78,0 39.72,0 39.72,3.47 31.78,3.47 "/>
   <path class="fil2" d="M32.5 2.6l0.59 -0.9 -0.54 -0.83 0.41 0 0.34 0.52 0.34 -0.52 0.41 0 -0.54 0.83 0.6 0.9 -0.43 0 -0.38 -0.58 -0.38 0.58 -0.42 0zm3.35 0l-0.38 0 -0.15 -0.39 -0.7 0 -0.14 0.39 -0.37 0 0.67 -1.73 0.37 0 0.7 1.73zm-0.65 -0.68l-0.24 -0.65 -0.23 0.65 0.47 0zm1.88 0.04l0.34 0.11c-0.05,0.19 -0.14,0.33 -0.26,0.42 -0.12,0.1 -0.27,0.14 -0.46,0.14 -0.23,0 -0.42,-0.08 -0.57,-0.23 -0.15,-0.16 -0.22,-0.38 -0.22,-0.65 0,-0.29 0.07,-0.51 0.22,-0.67 0.15,-0.16 0.35,-0.24 0.59,-0.24 0.21,0 0.39,0.06 0.52,0.19 0.08,0.07 0.14,0.18 0.18,0.32l-0.35 0.08c-0.02,-0.09 -0.06,-0.16 -0.13,-0.21 -0.06,-0.06 -0.14,-0.08 -0.24,-0.08 -0.13,0 -0.23,0.04 -0.31,0.14 -0.08,0.09 -0.12,0.24 -0.12,0.44 0,0.22 0.04,0.38 0.12,0.47 0.08,0.1 0.18,0.14 0.31,0.14 0.09,0 0.17,-0.03 0.24,-0.09 0.06,-0.06 0.11,-0.15 0.14,-0.28zm0.7 -1.09l1.22 0 0 1.73 -0.35 0 0 -1.44 -0.52 0 0 0.74c0,0.21 -0.01,0.36 -0.02,0.45 -0.02,0.08 -0.05,0.15 -0.11,0.19 -0.05,0.05 -0.14,0.07 -0.25,0.07 -0.05,0 -0.12,0 -0.23,-0.01l0 -0.27 0.08 0c0.07,0 0.12,-0.01 0.15,-0.03 0.02,-0.02 0.04,-0.07 0.04,-0.14l-0.01 -0.3 0 -0.99z"/>
  </g>
  <g id="_2353400695424">
   <polygon class="fil1" points="39.72,3.47 47.66,3.47 47.66,6.94 39.72,6.94 "/>
   <path class="fil2" d="M40.44 6.07l0.6 -0.9 -0.54 -0.83 0.4 0 0.35 0.52 0.34 -0.52 0.41 0 -0.55 0.83 0.6 0.9 -0.42 0 -0.39 -0.58 -0.38 0.58 -0.42 0zm3.35 0l-0.38 0 -0.15 -0.39 -0.69 0 -0.15 0.39 -0.37 0 0.68 -1.73 0.37 0 0.69 1.73zm-0.64 -0.68l-0.24 -0.65 -0.24 0.65 0.48 0zm1.87 0.04l0.34 0.11c-0.05,0.19 -0.13,0.33 -0.26,0.42 -0.12,0.1 -0.27,0.14 -0.46,0.14 -0.23,0 -0.42,-0.08 -0.56,-0.23 -0.15,-0.16 -0.23,-0.38 -0.23,-0.65 0,-0.29 0.08,-0.51 0.23,-0.67 0.15,-0.16 0.34,-0.24 0.58,-0.24 0.22,0 0.39,0.06 0.52,0.19 0.08,0.07 0.14,0.18 0.18,0.32l-0.35 0.08c-0.02,-0.09 -0.06,-0.16 -0.13,-0.21 -0.06,-0.05 -0.14,-0.08 -0.23,-0.08 -0.13,0 -0.24,0.05 -0.32,0.14 -0.08,0.09 -0.12,0.24 -0.12,0.45 0,0.21 0.04,0.37 0.12,0.46 0.08,0.1 0.18,0.14 0.31,0.14 0.09,0 0.17,-0.03 0.24,-0.09 0.07,-0.06 0.12,-0.15 0.14,-0.28zm0.71 -1.09l1.21 0 0 1.73 -0.35 0 0 -1.44 -0.52 0 0 0.74c0,0.22 -0.01,0.36 -0.02,0.45 -0.01,0.08 -0.05,0.15 -0.1,0.19 -0.06,0.05 -0.14,0.07 -0.26,0.07 -0.04,0 -0.12,0 -0.22,-0.01l0 -0.27 0.07 0c0.08,0 0.13,-0.01 0.15,-0.03 0.03,-0.02 0.04,-0.07 0.04,-0.14l0 -0.3 0 -0.99z"/>
  </g>
  <g id="_2353400695040">
   <polygon class="fil1" points="0,6.94 7.94,6.94 7.94,10.41 0,10.41 "/>
   <path class="fil2" d="M0.72 9.54l0.6 -0.9 -0.54 -0.83 0.4 0 0.35 0.52 0.34 -0.52 0.41 0 -0.55 0.83 0.6 0.9 -0.42 0 -0.38 -0.58 -0.39 0.58 -0.42 0zm3.35 0l-0.38 0 -0.15 -0.39 -0.69 0 -0.15 0.39 -0.37 0 0.68 -1.73 0.37 0 0.69 1.73zm-0.64 -0.68l-0.24 -0.64 -0.23 0.64 0.47 0zm1.88 0.05l0.33 0.1c-0.05,0.19 -0.13,0.33 -0.26,0.42 -0.12,0.1 -0.27,0.14 -0.46,0.14 -0.23,0 -0.41,-0.08 -0.56,-0.23 -0.15,-0.16 -0.23,-0.38 -0.23,-0.65 0,-0.29 0.08,-0.51 0.23,-0.67 0.15,-0.16 0.34,-0.24 0.59,-0.24 0.21,0 0.38,0.06 0.51,0.19 0.08,0.07 0.14,0.18 0.18,0.32l-0.35 0.08c-0.02,-0.09 -0.06,-0.16 -0.12,-0.21 -0.07,-0.05 -0.15,-0.08 -0.24,-0.08 -0.13,0 -0.23,0.05 -0.31,0.14 -0.08,0.09 -0.12,0.24 -0.12,0.45 0,0.21 0.03,0.37 0.11,0.46 0.08,0.1 0.18,0.14 0.31,0.14 0.09,0 0.17,-0.03 0.24,-0.09 0.07,-0.06 0.12,-0.15 0.15,-0.27zm0.7 -1.1l1.21 0 0 1.73 -0.35 0 0 -1.44 -0.52 0 0 0.74c0,0.22 -0.01,0.36 -0.02,0.45 -0.01,0.08 -0.05,0.15 -0.1,0.19 -0.06,0.05 -0.14,0.07 -0.26,0.07 -0.04,0 -0.11,0 -0.22,-0.01l0 -0.27 0.08 0c0.07,0 0.12,-0.01 0.14,-0.03 0.03,-0.02 0.04,-0.07 0.04,-0.14l0 -0.3 0 -0.99z"/>
  </g>
  <g id="_2353400698112">
   <polygon class="fil1" points="15.89,6.94 23.83,6.94 23.83,10.41 15.89,10.41 "/>
   <path class="fil2" d="M16.61 9.54l0.6 -0.9 -0.55 -0.83 0.41 0 0.34 0.52 0.34 -0.52 0.41 0 -0.54 0.83 0.6 0.9 -0.42 0 -0.39 -0.58 -0.38 0.58 -0.42 0zm3.35 0l-0.38 0 -0.15 -0.39 -0.69 0 -0.15 0.39 -0.37 0 0.67 -1.73 0.37 0 0.7 1.73zm-0.64 -0.68l-0.24 -0.64 -0.24 0.64 0.48 0zm1.87 0.05l0.34 0.1c-0.05,0.19 -0.14,0.33 -0.26,0.42 -0.12,0.1 -0.27,0.14 -0.46,0.14 -0.23,0 -0.42,-0.08 -0.57,-0.23 -0.14,-0.16 -0.22,-0.38 -0.22,-0.65 0,-0.29 0.08,-0.51 0.23,-0.67 0.14,-0.16 0.34,-0.24 0.58,-0.24 0.22,0 0.39,0.06 0.52,0.19 0.08,0.07 0.14,0.18 0.18,0.32l-0.35 0.08c-0.02,-0.09 -0.06,-0.16 -0.13,-0.21 -0.06,-0.05 -0.14,-0.08 -0.23,-0.08 -0.13,0 -0.24,0.05 -0.32,0.14 -0.08,0.09 -0.12,0.24 -0.12,0.45 0,0.21 0.04,0.37 0.12,0.46 0.08,0.1 0.18,0.14 0.31,0.14 0.09,0 0.17,-0.03 0.24,-0.09 0.07,-0.06 0.11,-0.15 0.14,-0.27zm0.71 -1.1l1.21 0 0 1.73 -0.35 0 0 -1.44 -0.52 0 0 0.74c0,0.22 -0.01,0.36 -0.02,0.45 -0.02,0.08 -0.05,0.15 -0.1,0.19 -0.06,0.05 -0.15,0.07 -0.26,0.07 -0.04,0 -0.12,0 -0.23,-0.01l0 -0.27 0.08 0c0.08,0 0.13,-0.01 0.15,-0.03 0.03,-0.02 0.04,-0.07 0.04,-0.14l0 -0.3 0 -0.99z"/>
  </g>
  <g id="_2353400713040">
   <polygon class="fil1" points="7.94,10.41 15.89,10.41 15.89,13.88 7.94,13.88 "/>
   <path class="fil2" d="M8.66 13.01l0.6 -0.9 -0.54 -0.83 0.41 0 0.34 0.52 0.34 -0.52 0.41 0 -0.54 0.83 0.59 0.9 -0.42 0 -0.38 -0.58 -0.38 0.58 -0.43 0zm3.35 0l-0.37 0 -0.15 -0.39 -0.7 0 -0.14 0.39 -0.37 0 0.67 -1.73 0.37 0 0.69 1.73zm-0.64 -0.68l-0.24 -0.64 -0.23 0.64 0.47 0zm1.88 0.05l0.34 0.1c-0.05,0.19 -0.14,0.33 -0.26,0.42 -0.12,0.1 -0.28,0.14 -0.46,0.14 -0.23,0 -0.42,-0.08 -0.57,-0.23 -0.15,-0.16 -0.22,-0.37 -0.22,-0.65 0,-0.29 0.07,-0.51 0.22,-0.67 0.15,-0.16 0.35,-0.24 0.59,-0.24 0.21,0 0.38,0.06 0.52,0.19 0.08,0.07 0.13,0.18 0.17,0.32l-0.34 0.08c-0.02,-0.09 -0.07,-0.16 -0.13,-0.21 -0.07,-0.05 -0.14,-0.08 -0.24,-0.08 -0.13,0 -0.23,0.05 -0.31,0.14 -0.08,0.09 -0.12,0.24 -0.12,0.45 0,0.22 0.04,0.37 0.12,0.46 0.08,0.1 0.18,0.14 0.3,0.14 0.1,0 0.18,-0.03 0.25,-0.09 0.06,-0.05 0.11,-0.15 0.14,-0.27zm0.7 -1.1l1.22 0 0 1.73 -0.35 0 0 -1.44 -0.52 0 0 0.74c0,0.22 -0.01,0.36 -0.03,0.45 -0.01,0.08 -0.04,0.15 -0.1,0.19 -0.05,0.05 -0.14,0.07 -0.26,0.07 -0.04,0 -0.11,0 -0.22,-0.01l0 -0.27 0.08 0c0.07,0 0.12,-0.01 0.15,-0.03 0.02,-0.02 0.03,-0.07 0.03,-0.14l0 -0.3 0 -0.99z"/>
  </g>
  <g id="_2353438669600">
   <polygon class="fil1" points="23.83,10.41 31.78,10.41 31.78,13.88 23.83,13.88 "/>
   <path class="fil2" d="M24.55 13.01l0.6 -0.9 -0.54 -0.83 0.41 0 0.34 0.52 0.34 -0.52 0.41 0 -0.55 0.83 0.6 0.9 -0.42 0 -0.38 -0.58 -0.39 0.58 -0.42 0zm3.35 0l-0.38 0 -0.15 -0.39 -0.69 0 -0.14 0.39 -0.38 0 0.68 -1.73 0.37 0 0.69 1.73zm-0.64 -0.68l-0.24 -0.64 -0.23 0.64 0.47 0zm1.88 0.05l0.34 0.1c-0.06,0.19 -0.14,0.33 -0.26,0.42 -0.12,0.1 -0.28,0.14 -0.46,0.14 -0.23,0 -0.42,-0.08 -0.57,-0.23 -0.15,-0.16 -0.22,-0.37 -0.22,-0.65 0,-0.29 0.07,-0.51 0.22,-0.67 0.15,-0.16 0.34,-0.24 0.59,-0.24 0.21,0 0.38,0.06 0.51,0.19 0.08,0.07 0.14,0.18 0.18,0.32l-0.34 0.08c-0.03,-0.09 -0.07,-0.16 -0.13,-0.21 -0.07,-0.05 -0.15,-0.08 -0.24,-0.08 -0.13,0 -0.23,0.05 -0.31,0.14 -0.08,0.09 -0.12,0.24 -0.12,0.45 0,0.22 0.04,0.37 0.11,0.46 0.08,0.1 0.19,0.14 0.31,0.14 0.1,0 0.18,-0.03 0.24,-0.09 0.07,-0.05 0.12,-0.15 0.15,-0.27zm0.7 -1.1l1.21 0 0 1.73 -0.35 0 0 -1.44 -0.52 0 0 0.74c0,0.22 0,0.36 -0.02,0.45 -0.01,0.08 -0.05,0.15 -0.1,0.19 -0.06,0.05 -0.14,0.07 -0.26,0.07 -0.04,0 -0.11,0 -0.22,-0.01l0 -0.27 0.08 0c0.07,0 0.12,-0.01 0.14,-0.03 0.03,-0.02 0.04,-0.07 0.04,-0.14l0 -0.3 0 -0.99z"/>
  </g>
  <g id="_2353438671088">
   <polygon class="fil1" points="31.78,6.94 39.72,6.94 39.72,10.41 31.78,10.41 "/>
   <path class="fil2" d="M32.5 9.54l0.59 -0.9 -0.54 -0.83 0.41 0 0.34 0.52 0.34 -0.52 0.41 0 -0.54 0.83 0.6 0.9 -0.43 0 -0.38 -0.58 -0.38 0.58 -0.42 0zm3.35 0l-0.38 0 -0.15 -0.39 -0.7 0 -0.14 0.39 -0.37 0 0.67 -1.73 0.37 0 0.7 1.73zm-0.65 -0.68l-0.24 -0.64 -0.23 0.64 0.47 0zm1.88 0.05l0.34 0.1c-0.05,0.19 -0.14,0.33 -0.26,0.42 -0.12,0.1 -0.27,0.14 -0.46,0.14 -0.23,0 -0.42,-0.08 -0.57,-0.23 -0.15,-0.16 -0.22,-0.38 -0.22,-0.65 0,-0.29 0.07,-0.51 0.22,-0.67 0.15,-0.16 0.35,-0.24 0.59,-0.24 0.21,0 0.39,0.06 0.52,0.19 0.08,0.07 0.14,0.18 0.18,0.32l-0.35 0.08c-0.02,-0.09 -0.06,-0.16 -0.13,-0.21 -0.06,-0.05 -0.14,-0.08 -0.24,-0.08 -0.13,0 -0.23,0.05 -0.31,0.14 -0.08,0.09 -0.12,0.24 -0.12,0.45 0,0.21 0.04,0.37 0.12,0.46 0.08,0.1 0.18,0.14 0.31,0.14 0.09,0 0.17,-0.03 0.24,-0.09 0.06,-0.06 0.11,-0.15 0.14,-0.27zm0.7 -1.1l1.22 0 0 1.73 -0.35 0 0 -1.44 -0.52 0 0 0.74c0,0.22 -0.01,0.36 -0.02,0.45 -0.02,0.08 -0.05,0.15 -0.11,0.19 -0.05,0.05 -0.14,0.07 -0.25,0.07 -0.05,0 -0.12,0 -0.23,-0.01l0 -0.27 0.08 0c0.07,0 0.12,-0.01 0.15,-0.03 0.02,-0.02 0.04,-0.07 0.04,-0.14l-0.01 -0.3 0 -0.99z"/>
  </g>
  <g id="_2353438672480">
   <polygon class="fil1" points="39.72,10.41 47.66,10.41 47.66,13.88 39.72,13.88 "/>
   <path class="fil2" d="M40.44 13.01l0.6 -0.9 -0.54 -0.83 0.4 0 0.35 0.52 0.34 -0.52 0.41 0 -0.55 0.83 0.6 0.9 -0.42 0 -0.39 -0.58 -0.38 0.58 -0.42 0zm3.35 0l-0.38 0 -0.15 -0.39 -0.69 0 -0.15 0.39 -0.37 0 0.68 -1.73 0.37 0 0.69 1.73zm-0.64 -0.68l-0.24 -0.64 -0.24 0.64 0.48 0zm1.87 0.05l0.34 0.1c-0.05,0.19 -0.13,0.33 -0.26,0.42 -0.12,0.1 -0.27,0.14 -0.46,0.14 -0.23,0 -0.42,-0.08 -0.56,-0.23 -0.15,-0.16 -0.23,-0.37 -0.23,-0.65 0,-0.29 0.08,-0.51 0.23,-0.67 0.15,-0.16 0.34,-0.24 0.58,-0.24 0.22,0 0.39,0.06 0.52,0.19 0.08,0.07 0.14,0.18 0.18,0.32l-0.35 0.08c-0.02,-0.09 -0.06,-0.16 -0.13,-0.21 -0.06,-0.05 -0.14,-0.08 -0.23,-0.08 -0.13,0 -0.24,0.05 -0.32,0.14 -0.08,0.09 -0.12,0.24 -0.12,0.45 0,0.22 0.04,0.37 0.12,0.46 0.08,0.1 0.18,0.14 0.31,0.14 0.09,0 0.17,-0.03 0.24,-0.09 0.07,-0.05 0.12,-0.15 0.14,-0.27zm0.71 -1.1l1.21 0 0 1.73 -0.35 0 0 -1.44 -0.52 0 0 0.74c0,0.22 -0.01,0.36 -0.02,0.45 -0.01,0.08 -0.05,0.15 -0.1,0.19 -0.06,0.05 -0.14,0.07 -0.26,0.07 -0.04,0 -0.12,0 -0.22,-0.01l0 -0.27 0.07 0c0.08,0 0.13,-0.01 0.15,-0.03 0.03,-0.02 0.04,-0.07 0.04,-0.14l0 -0.3 0 -0.99z"/>
  </g>
  <g id="_2353438673632">
   <polygon class="fil1" points="0,13.88 7.94,13.88 7.94,17.35 0,17.35 "/>
   <path class="fil2" d="M0.72 16.49l0.6 -0.91 -0.54 -0.83 0.4 0 0.35 0.52 0.34 -0.52 0.41 0 -0.55 0.83 0.6 0.91 -0.42 0 -0.38 -0.59 -0.39 0.59 -0.42 0zm3.35 0l-0.38 0 -0.15 -0.4 -0.69 0 -0.15 0.4 -0.37 0 0.68 -1.74 0.37 0 0.69 1.74zm-0.64 -0.69l-0.24 -0.64 -0.23 0.64 0.47 0zm1.88 0.05l0.33 0.1c-0.05,0.19 -0.13,0.33 -0.26,0.43 -0.12,0.09 -0.27,0.13 -0.46,0.13 -0.23,0 -0.41,-0.07 -0.56,-0.23 -0.15,-0.16 -0.23,-0.37 -0.23,-0.65 0,-0.29 0.08,-0.51 0.23,-0.67 0.15,-0.16 0.34,-0.24 0.59,-0.24 0.21,0 0.38,0.06 0.51,0.19 0.08,0.07 0.14,0.18 0.18,0.32l-0.35 0.08c-0.02,-0.09 -0.06,-0.16 -0.12,-0.21 -0.07,-0.05 -0.15,-0.08 -0.24,-0.08 -0.13,0 -0.23,0.05 -0.31,0.14 -0.08,0.09 -0.12,0.24 -0.12,0.45 0,0.22 0.03,0.37 0.11,0.46 0.08,0.1 0.18,0.14 0.31,0.14 0.09,0 0.17,-0.03 0.24,-0.08 0.07,-0.06 0.12,-0.16 0.15,-0.28zm0.7 -1.1l1.21 0 0 1.74 -0.35 0 0 -1.44 -0.52 0 0 0.74c0,0.21 -0.01,0.35 -0.02,0.44 -0.01,0.08 -0.05,0.15 -0.1,0.19 -0.06,0.05 -0.14,0.07 -0.26,0.07 -0.04,0 -0.11,0 -0.22,-0.01l0 -0.27 0.08 0c0.07,0 0.12,-0.01 0.14,-0.03 0.03,-0.02 0.04,-0.06 0.04,-0.14l0 -0.3 0 -0.99z"/>
  </g>
  <g id="_2353438676656">
   <polygon class="fil1" points="15.89,13.88 23.83,13.88 23.83,17.35 15.89,17.35 "/>
   <path class="fil2" d="M16.61 16.49l0.6 -0.91 -0.55 -0.83 0.41 0 0.34 0.52 0.34 -0.52 0.41 0 -0.54 0.83 0.6 0.91 -0.42 0 -0.39 -0.59 -0.38 0.59 -0.42 0zm3.35 0l-0.38 0 -0.15 -0.4 -0.69 0 -0.15 0.4 -0.37 0 0.67 -1.74 0.37 0 0.7 1.74zm-0.64 -0.69l-0.24 -0.64 -0.24 0.64 0.48 0zm1.87 0.05l0.34 0.1c-0.05,0.19 -0.14,0.33 -0.26,0.43 -0.12,0.09 -0.27,0.13 -0.46,0.13 -0.23,0 -0.42,-0.07 -0.57,-0.23 -0.14,-0.16 -0.22,-0.37 -0.22,-0.65 0,-0.29 0.08,-0.51 0.23,-0.67 0.14,-0.16 0.34,-0.24 0.58,-0.24 0.22,0 0.39,0.06 0.52,0.19 0.08,0.07 0.14,0.18 0.18,0.32l-0.35 0.08c-0.02,-0.09 -0.06,-0.16 -0.13,-0.21 -0.06,-0.05 -0.14,-0.08 -0.23,-0.08 -0.13,0 -0.24,0.05 -0.32,0.14 -0.08,0.09 -0.12,0.24 -0.12,0.45 0,0.22 0.04,0.37 0.12,0.46 0.08,0.1 0.18,0.14 0.31,0.14 0.09,0 0.17,-0.03 0.24,-0.08 0.07,-0.06 0.11,-0.16 0.14,-0.28zm0.71 -1.1l1.21 0 0 1.74 -0.35 0 0 -1.44 -0.52 0 0 0.74c0,0.21 -0.01,0.35 -0.02,0.44 -0.02,0.08 -0.05,0.15 -0.1,0.19 -0.06,0.05 -0.15,0.07 -0.26,0.07 -0.04,0 -0.12,0 -0.23,-0.01l0 -0.27 0.08 0c0.08,0 0.13,-0.01 0.15,-0.03 0.03,-0.02 0.04,-0.06 0.04,-0.14l0 -0.3 0 -0.99z"/>
  </g>
  <g id="_2353438676080">
   <polygon class="fil1" points="7.94,17.35 15.89,17.35 15.89,20.82 7.94,20.82 "/>
   <path class="fil2" d="M8.66 19.96l0.6 -0.91 -0.54 -0.83 0.41 0 0.34 0.52 0.34 -0.52 0.41 0 -0.54 0.83 0.59 0.91 -0.42 0 -0.38 -0.59 -0.38 0.59 -0.43 0zm3.35 0l-0.37 0 -0.15 -0.4 -0.7 0 -0.14 0.4 -0.37 0 0.67 -1.74 0.37 0 0.69 1.74zm-0.64 -0.69l-0.24 -0.64 -0.23 0.64 0.47 0zm1.88 0.05l0.34 0.1c-0.05,0.19 -0.14,0.33 -0.26,0.43 -0.12,0.09 -0.28,0.13 -0.46,0.13 -0.23,0 -0.42,-0.07 -0.57,-0.23 -0.15,-0.16 -0.22,-0.37 -0.22,-0.65 0,-0.28 0.07,-0.51 0.22,-0.67 0.15,-0.16 0.35,-0.24 0.59,-0.24 0.21,0 0.38,0.06 0.52,0.19 0.08,0.07 0.13,0.18 0.17,0.32l-0.34 0.08c-0.02,-0.09 -0.07,-0.16 -0.13,-0.21 -0.07,-0.05 -0.14,-0.08 -0.24,-0.08 -0.13,0 -0.23,0.05 -0.31,0.14 -0.08,0.09 -0.12,0.24 -0.12,0.45 0,0.22 0.04,0.37 0.12,0.47 0.08,0.09 0.18,0.13 0.3,0.13 0.1,0 0.18,-0.02 0.25,-0.08 0.06,-0.06 0.11,-0.16 0.14,-0.28zm0.7 -1.1l1.22 0 0 1.74 -0.35 0 0 -1.44 -0.52 0 0 0.74c0,0.21 -0.01,0.36 -0.03,0.44 -0.01,0.08 -0.04,0.15 -0.1,0.2 -0.05,0.04 -0.14,0.07 -0.26,0.07 -0.04,0 -0.11,-0.01 -0.22,-0.02l0 -0.27 0.08 0c0.07,0 0.12,-0.01 0.15,-0.03 0.02,-0.02 0.03,-0.06 0.03,-0.14l0 -0.3 0 -0.99z"/>
  </g>
  <g id="_2353438689232">
   <polygon class="fil1" points="23.83,17.35 31.78,17.35 31.78,20.82 23.83,20.82 "/>
   <path class="fil2" d="M24.55 19.96l0.6 -0.91 -0.54 -0.83 0.41 0 0.34 0.52 0.34 -0.52 0.41 0 -0.55 0.83 0.6 0.91 -0.42 0 -0.38 -0.59 -0.39 0.59 -0.42 0zm3.35 0l-0.38 0 -0.15 -0.4 -0.69 0 -0.14 0.4 -0.38 0 0.68 -1.74 0.37 0 0.69 1.74zm-0.64 -0.69l-0.24 -0.64 -0.23 0.64 0.47 0zm1.88 0.05l0.34 0.1c-0.06,0.19 -0.14,0.33 -0.26,0.43 -0.12,0.09 -0.28,0.13 -0.46,0.13 -0.23,0 -0.42,-0.07 -0.57,-0.23 -0.15,-0.16 -0.22,-0.37 -0.22,-0.65 0,-0.28 0.07,-0.51 0.22,-0.67 0.15,-0.16 0.34,-0.24 0.59,-0.24 0.21,0 0.38,0.06 0.51,0.19 0.08,0.07 0.14,0.18 0.18,0.32l-0.34 0.08c-0.03,-0.09 -0.07,-0.16 -0.13,-0.21 -0.07,-0.05 -0.15,-0.08 -0.24,-0.08 -0.13,0 -0.23,0.05 -0.31,0.14 -0.08,0.09 -0.12,0.24 -0.12,0.45 0,0.22 0.04,0.37 0.11,0.47 0.08,0.09 0.19,0.13 0.31,0.13 0.1,0 0.18,-0.02 0.24,-0.08 0.07,-0.06 0.12,-0.16 0.15,-0.28zm0.7 -1.1l1.21 0 0 1.74 -0.35 0 0 -1.44 -0.52 0 0 0.74c0,0.21 0,0.36 -0.02,0.44 -0.01,0.08 -0.05,0.15 -0.1,0.2 -0.06,0.04 -0.14,0.07 -0.26,0.07 -0.04,0 -0.11,-0.01 -0.22,-0.02l0 -0.27 0.08 0c0.07,0 0.12,-0.01 0.14,-0.03 0.03,-0.02 0.04,-0.06 0.04,-0.14l0 -0.3 0 -0.99z"/>
  </g>
  <g id="_2353438690912">
   <polygon class="fil1" points="31.78,13.88 39.72,13.88 39.72,17.35 31.78,17.35 "/>
   <path class="fil2" d="M32.5 16.49l0.59 -0.91 -0.54 -0.83 0.41 0 0.34 0.52 0.34 -0.52 0.41 0 -0.54 0.83 0.6 0.91 -0.43 0 -0.38 -0.59 -0.38 0.59 -0.42 0zm3.35 0l-0.38 0 -0.15 -0.4 -0.7 0 -0.14 0.4 -0.37 0 0.67 -1.74 0.37 0 0.7 1.74zm-0.65 -0.69l-0.24 -0.64 -0.23 0.64 0.47 0zm1.88 0.05l0.34 0.1c-0.05,0.19 -0.14,0.33 -0.26,0.43 -0.12,0.09 -0.27,0.13 -0.46,0.13 -0.23,0 -0.42,-0.07 -0.57,-0.23 -0.15,-0.16 -0.22,-0.37 -0.22,-0.65 0,-0.29 0.07,-0.51 0.22,-0.67 0.15,-0.16 0.35,-0.24 0.59,-0.24 0.21,0 0.39,0.06 0.52,0.19 0.08,0.07 0.14,0.18 0.18,0.32l-0.35 0.08c-0.02,-0.09 -0.06,-0.16 -0.13,-0.21 -0.06,-0.05 -0.14,-0.08 -0.24,-0.08 -0.13,0 -0.23,0.05 -0.31,0.14 -0.08,0.09 -0.12,0.24 -0.12,0.45 0,0.22 0.04,0.37 0.12,0.46 0.08,0.1 0.18,0.14 0.31,0.14 0.09,0 0.17,-0.03 0.24,-0.08 0.06,-0.06 0.11,-0.16 0.14,-0.28zm0.7 -1.1l1.22 0 0 1.74 -0.35 0 0 -1.44 -0.52 0 0 0.74c0,0.21 -0.01,0.35 -0.02,0.44 -0.02,0.08 -0.05,0.15 -0.11,0.19 -0.05,0.05 -0.14,0.07 -0.25,0.07 -0.05,0 -0.12,0 -0.23,-0.01l0 -0.27 0.08 0c0.07,0 0.12,-0.01 0.15,-0.03 0.02,-0.02 0.04,-0.06 0.04,-0.14l-0.01 -0.3 0 -0.99z"/>
  </g>
  <g id="_2353438628608">
   <polygon class="fil1" points="39.72,17.35 47.66,17.35 47.66,20.82 39.72,20.82 "/>
   <path class="fil2" d="M40.44 19.96l0.6 -0.91 -0.54 -0.83 0.4 0 0.35 0.52 0.34 -0.52 0.41 0 -0.55 0.83 0.6 0.91 -0.42 0 -0.39 -0.59 -0.38 0.59 -0.42 0zm3.35 0l-0.38 0 -0.15 -0.4 -0.69 0 -0.15 0.4 -0.37 0 0.68 -1.74 0.37 0 0.69 1.74zm-0.64 -0.69l-0.24 -0.64 -0.24 0.64 0.48 0zm1.87 0.05l0.34 0.1c-0.05,0.19 -0.13,0.33 -0.26,0.43 -0.12,0.09 -0.27,0.13 -0.46,0.13 -0.23,0 -0.42,-0.07 -0.56,-0.23 -0.15,-0.16 -0.23,-0.37 -0.23,-0.65 0,-0.28 0.08,-0.51 0.23,-0.67 0.15,-0.16 0.34,-0.24 0.58,-0.24 0.22,0 0.39,0.06 0.52,0.19 0.08,0.07 0.14,0.18 0.18,0.32l-0.35 0.08c-0.02,-0.09 -0.06,-0.16 -0.13,-0.21 -0.06,-0.05 -0.14,-0.08 -0.23,-0.08 -0.13,0 -0.24,0.05 -0.32,0.14 -0.08,0.09 -0.12,0.24 -0.12,0.45 0,0.22 0.04,0.37 0.12,0.47 0.08,0.09 0.18,0.13 0.31,0.13 0.09,0 0.17,-0.02 0.24,-0.08 0.07,-0.06 0.12,-0.16 0.14,-0.28zm0.71 -1.1l1.21 0 0 1.74 -0.35 0 0 -1.44 -0.52 0 0 0.74c0,0.21 -0.01,0.36 -0.02,0.44 -0.01,0.08 -0.05,0.15 -0.1,0.2 -0.06,0.04 -0.14,0.07 -0.26,0.07 -0.04,0 -0.12,-0.01 -0.22,-0.02l0 -0.27 0.07 0c0.08,0 0.13,-0.01 0.15,-0.03 0.03,-0.02 0.04,-0.06 0.04,-0.14l0 -0.3 0 -0.99z"/>
  </g>
  <g id="_2353438628944">
   <polygon class="fil1" points="0,20.82 7.94,20.82 7.94,24.29 0,24.29 "/>
   <path class="fil2" d="M0.72 23.43l0.6 -0.91 -0.54 -0.83 0.4 0 0.35 0.52 0.34 -0.52 0.41 0 -0.55 0.83 0.6 0.91 -0.42 0 -0.38 -0.59 -0.39 0.59 -0.42 0zm3.35 0l-0.38 0 -0.15 -0.4 -0.69 0 -0.15 0.4 -0.37 0 0.68 -1.74 0.37 0 0.69 1.74zm-0.64 -0.69l-0.24 -0.64 -0.23 0.64 0.47 0zm1.88 0.05l0.33 0.1c-0.05,0.19 -0.13,0.33 -0.26,0.43 -0.12,0.09 -0.27,0.14 -0.46,0.14 -0.23,0 -0.41,-0.08 -0.56,-0.24 -0.15,-0.16 -0.23,-0.37 -0.23,-0.65 0,-0.28 0.08,-0.51 0.23,-0.67 0.15,-0.16 0.34,-0.24 0.59,-0.24 0.21,0 0.38,0.07 0.51,0.19 0.08,0.07 0.14,0.18 0.18,0.32l-0.35 0.08c-0.02,-0.09 -0.06,-0.16 -0.12,-0.21 -0.07,-0.05 -0.15,-0.08 -0.24,-0.08 -0.13,0 -0.23,0.05 -0.31,0.14 -0.08,0.09 -0.12,0.24 -0.12,0.45 0,0.22 0.03,0.37 0.11,0.47 0.08,0.09 0.18,0.14 0.31,0.14 0.09,0 0.17,-0.03 0.24,-0.09 0.07,-0.06 0.12,-0.16 0.15,-0.28zm0.7 -1.1l1.21 0 0 1.74 -0.35 0 0 -1.44 -0.52 0 0 0.74c0,0.21 -0.01,0.36 -0.02,0.44 -0.01,0.08 -0.05,0.15 -0.1,0.2 -0.06,0.04 -0.14,0.07 -0.26,0.07 -0.04,0 -0.11,-0.01 -0.22,-0.02l0 -0.27 0.08 0c0.07,0 0.12,-0.01 0.14,-0.03 0.03,-0.02 0.04,-0.06 0.04,-0.14l0 -0.3 0 -0.99z"/>
  </g>
  <g id="_2353438627888">
   <polygon class="fil1" points="15.89,20.82 23.83,20.82 23.83,24.29 15.89,24.29 "/>
   <path class="fil2" d="M16.61 23.43l0.6 -0.91 -0.55 -0.83 0.41 0 0.34 0.52 0.34 -0.52 0.41 0 -0.54 0.83 0.6 0.91 -0.42 0 -0.39 -0.59 -0.38 0.59 -0.42 0zm3.35 0l-0.38 0 -0.15 -0.4 -0.69 0 -0.15 0.4 -0.37 0 0.67 -1.74 0.37 0 0.7 1.74zm-0.64 -0.69l-0.24 -0.64 -0.24 0.64 0.48 0zm1.87 0.05l0.34 0.1c-0.05,0.19 -0.14,0.33 -0.26,0.43 -0.12,0.09 -0.27,0.14 -0.46,0.14 -0.23,0 -0.42,-0.08 -0.57,-0.24 -0.14,-0.16 -0.22,-0.37 -0.22,-0.65 0,-0.28 0.08,-0.51 0.23,-0.67 0.14,-0.16 0.34,-0.24 0.58,-0.24 0.22,0 0.39,0.07 0.52,0.19 0.08,0.07 0.14,0.18 0.18,0.32l-0.35 0.08c-0.02,-0.09 -0.06,-0.16 -0.13,-0.21 -0.06,-0.05 -0.14,-0.08 -0.23,-0.08 -0.13,0 -0.24,0.05 -0.32,0.14 -0.08,0.09 -0.12,0.24 -0.12,0.45 0,0.22 0.04,0.37 0.12,0.47 0.08,0.09 0.18,0.14 0.31,0.14 0.09,0 0.17,-0.03 0.24,-0.09 0.07,-0.06 0.11,-0.16 0.14,-0.28zm0.71 -1.1l1.21 0 0 1.74 -0.35 0 0 -1.44 -0.52 0 0 0.74c0,0.21 -0.01,0.36 -0.02,0.44 -0.02,0.08 -0.05,0.15 -0.1,0.2 -0.06,0.04 -0.15,0.07 -0.26,0.07 -0.04,0 -0.12,-0.01 -0.23,-0.02l0 -0.27 0.08 0c0.08,0 0.13,-0.01 0.15,-0.03 0.03,-0.02 0.04,-0.06 0.04,-0.14l0 -0.3 0 -0.99z"/>
  </g>
  <g id="_2353438628464">
   <polygon class="fil1" points="7.94,24.29 15.89,24.29 15.89,27.76 7.94,27.76 "/>
   <path class="fil2" d="M8.66 26.9l0.6 -0.91 -0.54 -0.83 0.41 0 0.34 0.52 0.34 -0.52 0.41 0 -0.54 0.83 0.59 0.91 -0.42 0 -0.38 -0.59 -0.38 0.59 -0.43 0zm3.35 0l-0.37 0 -0.15 -0.4 -0.7 0 -0.14 0.4 -0.37 0 0.67 -1.74 0.37 0 0.69 1.74zm-0.64 -0.69l-0.24 -0.64 -0.23 0.64 0.47 0zm1.88 0.05l0.34 0.1c-0.05,0.19 -0.14,0.33 -0.26,0.43 -0.12,0.09 -0.28,0.14 -0.46,0.14 -0.23,0 -0.42,-0.08 -0.57,-0.24 -0.15,-0.16 -0.22,-0.37 -0.22,-0.65 0,-0.28 0.07,-0.51 0.22,-0.67 0.15,-0.16 0.35,-0.24 0.59,-0.24 0.21,0 0.38,0.07 0.52,0.19 0.08,0.08 0.13,0.18 0.17,0.32l-0.34 0.08c-0.02,-0.09 -0.07,-0.16 -0.13,-0.21 -0.07,-0.05 -0.14,-0.08 -0.24,-0.08 -0.13,0 -0.23,0.05 -0.31,0.14 -0.08,0.09 -0.12,0.24 -0.12,0.45 0,0.22 0.04,0.37 0.12,0.47 0.08,0.09 0.18,0.14 0.3,0.14 0.1,0 0.18,-0.03 0.25,-0.09 0.06,-0.06 0.11,-0.15 0.14,-0.28zm0.7 -1.1l1.22 0 0 1.74 -0.35 0 0 -1.44 -0.52 0 0 0.74c0,0.21 -0.01,0.36 -0.03,0.44 -0.01,0.08 -0.04,0.15 -0.1,0.2 -0.05,0.04 -0.14,0.07 -0.26,0.07 -0.04,0 -0.11,-0.01 -0.22,-0.02l0 -0.27 0.08 0c0.07,0 0.12,0 0.15,-0.02 0.02,-0.02 0.03,-0.07 0.03,-0.15l0 -0.3 0 -0.99z"/>
  </g>
  <g id="_2353438631248">
   <polygon class="fil1" points="23.83,24.29 31.78,24.29 31.78,27.76 23.83,27.76 "/>
   <path class="fil2" d="M24.55 26.9l0.6 -0.91 -0.54 -0.83 0.41 0 0.34 0.52 0.34 -0.52 0.41 0 -0.55 0.83 0.6 0.91 -0.42 0 -0.38 -0.59 -0.39 0.59 -0.42 0zm3.35 0l-0.38 0 -0.15 -0.4 -0.69 0 -0.14 0.4 -0.38 0 0.68 -1.74 0.37 0 0.69 1.74zm-0.64 -0.69l-0.24 -0.64 -0.23 0.64 0.47 0zm1.88 0.05l0.34 0.1c-0.06,0.19 -0.14,0.33 -0.26,0.43 -0.12,0.09 -0.28,0.14 -0.46,0.14 -0.23,0 -0.42,-0.08 -0.57,-0.24 -0.15,-0.16 -0.22,-0.37 -0.22,-0.65 0,-0.28 0.07,-0.51 0.22,-0.67 0.15,-0.16 0.34,-0.24 0.59,-0.24 0.21,0 0.38,0.07 0.51,0.19 0.08,0.08 0.14,0.18 0.18,0.32l-0.34 0.08c-0.03,-0.09 -0.07,-0.16 -0.13,-0.21 -0.07,-0.05 -0.15,-0.08 -0.24,-0.08 -0.13,0 -0.23,0.05 -0.31,0.14 -0.08,0.09 -0.12,0.24 -0.12,0.45 0,0.22 0.04,0.37 0.11,0.47 0.08,0.09 0.19,0.14 0.31,0.14 0.1,0 0.18,-0.03 0.24,-0.09 0.07,-0.06 0.12,-0.15 0.15,-0.28zm0.7 -1.1l1.21 0 0 1.74 -0.35 0 0 -1.44 -0.52 0 0 0.74c0,0.21 0,0.36 -0.02,0.44 -0.01,0.08 -0.05,0.15 -0.1,0.2 -0.06,0.04 -0.14,0.07 -0.26,0.07 -0.04,0 -0.11,-0.01 -0.22,-0.02l0 -0.27 0.08 0c0.07,0 0.12,0 0.14,-0.02 0.03,-0.02 0.04,-0.07 0.04,-0.15l0 -0.3 0 -0.99z"/>
  </g>
  <g id="_2353438631536">
   <polygon class="fil1" points="31.78,20.82 39.72,20.82 39.72,24.29 31.78,24.29 "/>
   <path class="fil2" d="M32.5 23.43l0.59 -0.91 -0.54 -0.83 0.41 0 0.34 0.52 0.34 -0.52 0.41 0 -0.54 0.83 0.6 0.91 -0.43 0 -0.38 -0.59 -0.38 0.59 -0.42 0zm3.35 0l-0.38 0 -0.15 -0.4 -0.7 0 -0.14 0.4 -0.37 0 0.67 -1.74 0.37 0 0.7 1.74zm-0.65 -0.69l-0.24 -0.64 -0.23 0.64 0.47 0zm1.88 0.05l0.34 0.1c-0.05,0.19 -0.14,0.33 -0.26,0.43 -0.12,0.09 -0.27,0.14 -0.46,0.14 -0.23,0 -0.42,-0.08 -0.57,-0.24 -0.15,-0.16 -0.22,-0.37 -0.22,-0.65 0,-0.28 0.07,-0.51 0.22,-0.67 0.15,-0.16 0.35,-0.24 0.59,-0.24 0.21,0 0.39,0.07 0.52,0.19 0.08,0.07 0.14,0.18 0.18,0.32l-0.35 0.08c-0.02,-0.09 -0.06,-0.16 -0.13,-0.21 -0.06,-0.05 -0.14,-0.08 -0.24,-0.08 -0.13,0 -0.23,0.05 -0.31,0.14 -0.08,0.09 -0.12,0.24 -0.12,0.45 0,0.22 0.04,0.37 0.12,0.47 0.08,0.09 0.18,0.14 0.31,0.14 0.09,0 0.17,-0.03 0.24,-0.09 0.06,-0.06 0.11,-0.16 0.14,-0.28zm0.7 -1.1l1.22 0 0 1.74 -0.35 0 0 -1.44 -0.52 0 0 0.74c0,0.21 -0.01,0.36 -0.02,0.44 -0.02,0.08 -0.05,0.15 -0.11,0.2 -0.05,0.04 -0.14,0.07 -0.25,0.07 -0.05,0 -0.12,-0.01 -0.23,-0.02l0 -0.27 0.08 0c0.07,0 0.12,-0.01 0.15,-0.03 0.02,-0.02 0.04,-0.06 0.04,-0.14l-0.01 -0.3 0 -0.99z"/>
  </g>
  <g id="_2353438633840">
   <polygon class="fil1" points="39.72,24.29 47.66,24.29 47.66,27.76 39.72,27.76 "/>
   <path class="fil2" d="M40.44 26.9l0.6 -0.91 -0.54 -0.83 0.4 0 0.35 0.52 0.34 -0.52 0.41 0 -0.55 0.83 0.6 0.91 -0.42 0 -0.39 -0.59 -0.38 0.59 -0.42 0zm3.35 0l-0.38 0 -0.15 -0.4 -0.69 0 -0.15 0.4 -0.37 0 0.68 -1.74 0.37 0 0.69 1.74zm-0.64 -0.69l-0.24 -0.64 -0.24 0.64 0.48 0zm1.87 0.05l0.34 0.1c-0.05,0.19 -0.13,0.33 -0.26,0.43 -0.12,0.09 -0.27,0.14 -0.46,0.14 -0.23,0 -0.42,-0.08 -0.56,-0.24 -0.15,-0.16 -0.23,-0.37 -0.23,-0.65 0,-0.28 0.08,-0.51 0.23,-0.67 0.15,-0.16 0.34,-0.24 0.58,-0.24 0.22,0 0.39,0.07 0.52,0.19 0.08,0.08 0.14,0.18 0.18,0.32l-0.35 0.08c-0.02,-0.09 -0.06,-0.16 -0.13,-0.21 -0.06,-0.05 -0.14,-0.08 -0.23,-0.08 -0.13,0 -0.24,0.05 -0.32,0.14 -0.08,0.09 -0.12,0.24 -0.12,0.45 0,0.22 0.04,0.37 0.12,0.47 0.08,0.09 0.18,0.14 0.31,0.14 0.09,0 0.17,-0.03 0.24,-0.09 0.07,-0.06 0.12,-0.15 0.14,-0.28zm0.71 -1.1l1.21 0 0 1.74 -0.35 0 0 -1.44 -0.52 0 0 0.74c0,0.21 -0.01,0.36 -0.02,0.44 -0.01,0.08 -0.05,0.15 -0.1,0.2 -0.06,0.04 -0.14,0.07 -0.26,0.07 -0.04,0 -0.12,-0.01 -0.22,-0.02l0 -0.27 0.07 0c0.08,0 0.13,0 0.15,-0.02 0.03,-0.02 0.04,-0.07 0.04,-0.15l0 -0.3 0 -0.99z"/>
  </g>
  <g id="_2353438633696">
   <polygon class="fil1" points="0,27.76 7.94,27.76 7.94,31.24 0,31.24 "/>
   <path class="fil2" d="M0.72 30.37l0.6 -0.91 -0.54 -0.83 0.4 0 0.35 0.52 0.34 -0.52 0.41 0 -0.55 0.83 0.6 0.91 -0.42 0 -0.38 -0.59 -0.39 0.59 -0.42 0zm3.35 0l-0.38 0 -0.15 -0.4 -0.69 0 -0.15 0.4 -0.37 0 0.68 -1.74 0.37 0 0.69 1.74zm-0.64 -0.69l-0.24 -0.64 -0.23 0.64 0.47 0zm1.88 0.05l0.33 0.1c-0.05,0.19 -0.13,0.33 -0.26,0.43 -0.12,0.09 -0.27,0.14 -0.46,0.14 -0.23,0 -0.41,-0.08 -0.56,-0.24 -0.15,-0.16 -0.23,-0.37 -0.23,-0.64 0,-0.29 0.08,-0.52 0.23,-0.68 0.15,-0.16 0.34,-0.24 0.59,-0.24 0.21,0 0.38,0.07 0.51,0.19 0.08,0.08 0.14,0.18 0.18,0.32l-0.35 0.08c-0.02,-0.09 -0.06,-0.16 -0.12,-0.21 -0.07,-0.05 -0.15,-0.08 -0.24,-0.08 -0.13,0 -0.23,0.05 -0.31,0.14 -0.08,0.09 -0.12,0.24 -0.12,0.45 0,0.22 0.03,0.37 0.11,0.47 0.08,0.09 0.18,0.14 0.31,0.14 0.09,0 0.17,-0.03 0.24,-0.09 0.07,-0.06 0.12,-0.15 0.15,-0.28zm0.7 -1.1l1.21 0 0 1.74 -0.35 0 0 -1.44 -0.52 0 0 0.74c0,0.21 -0.01,0.36 -0.02,0.44 -0.01,0.08 -0.05,0.15 -0.1,0.2 -0.06,0.04 -0.14,0.07 -0.26,0.07 -0.04,0 -0.11,-0.01 -0.22,-0.01l0 -0.28 0.08 0.01c0.07,0 0.12,-0.01 0.14,-0.03 0.03,-0.02 0.04,-0.07 0.04,-0.15l0 -0.3 0 -0.99z"/>
  </g>
  <g id="_2353438634944">
   <polygon class="fil1" points="15.89,27.76 23.83,27.76 23.83,31.24 15.89,31.24 "/>
   <path class="fil2" d="M16.61 30.37l0.6 -0.91 -0.55 -0.83 0.41 0 0.34 0.52 0.34 -0.52 0.41 0 -0.54 0.83 0.6 0.91 -0.42 0 -0.39 -0.59 -0.38 0.59 -0.42 0zm3.35 0l-0.38 0 -0.15 -0.4 -0.69 0 -0.15 0.4 -0.37 0 0.67 -1.74 0.37 0 0.7 1.74zm-0.64 -0.69l-0.24 -0.64 -0.24 0.64 0.48 0zm1.87 0.05l0.34 0.1c-0.05,0.19 -0.14,0.33 -0.26,0.43 -0.12,0.09 -0.27,0.14 -0.46,0.14 -0.23,0 -0.42,-0.08 -0.57,-0.24 -0.14,-0.16 -0.22,-0.37 -0.22,-0.64 0,-0.29 0.08,-0.52 0.23,-0.68 0.14,-0.16 0.34,-0.24 0.58,-0.24 0.22,0 0.39,0.07 0.52,0.19 0.08,0.08 0.14,0.18 0.18,0.32l-0.35 0.08c-0.02,-0.09 -0.06,-0.16 -0.13,-0.21 -0.06,-0.05 -0.14,-0.08 -0.23,-0.08 -0.13,0 -0.24,0.05 -0.32,0.14 -0.08,0.09 -0.12,0.24 -0.12,0.45 0,0.22 0.04,0.37 0.12,0.47 0.08,0.09 0.18,0.14 0.31,0.14 0.09,0 0.17,-0.03 0.24,-0.09 0.07,-0.06 0.11,-0.15 0.14,-0.28zm0.71 -1.1l1.21 0 0 1.74 -0.35 0 0 -1.44 -0.52 0 0 0.74c0,0.21 -0.01,0.36 -0.02,0.44 -0.02,0.08 -0.05,0.15 -0.1,0.2 -0.06,0.04 -0.15,0.07 -0.26,0.07 -0.04,0 -0.12,-0.01 -0.23,-0.01l0 -0.28 0.08 0.01c0.08,0 0.13,-0.01 0.15,-0.03 0.03,-0.02 0.04,-0.07 0.04,-0.15l0 -0.3 0 -0.99z"/>
  </g>
  <g id="_2353438637536">
   <polygon class="fil1" points="7.94,31.24 15.89,31.24 15.89,34.71 7.94,34.71 "/>
   <path class="fil2" d="M8.66 33.84l0.6 -0.91 -0.54 -0.82 0.41 0 0.34 0.51 0.34 -0.51 0.41 0 -0.54 0.83 0.59 0.9 -0.42 0 -0.38 -0.59 -0.38 0.59 -0.43 0zm3.35 0l-0.37 0 -0.15 -0.4 -0.7 0 -0.14 0.4 -0.37 0 0.67 -1.73 0.37 0 0.69 1.73zm-0.64 -0.69l-0.24 -0.64 -0.23 0.64 0.47 0zm1.88 0.05l0.34 0.1c-0.05,0.19 -0.14,0.34 -0.26,0.43 -0.12,0.09 -0.28,0.14 -0.46,0.14 -0.23,0 -0.42,-0.08 -0.57,-0.24 -0.15,-0.16 -0.22,-0.37 -0.22,-0.64 0,-0.29 0.07,-0.52 0.22,-0.68 0.15,-0.16 0.35,-0.24 0.59,-0.24 0.21,0 0.38,0.07 0.52,0.19 0.08,0.08 0.13,0.18 0.17,0.32l-0.34 0.08c-0.02,-0.09 -0.07,-0.16 -0.13,-0.21 -0.07,-0.05 -0.14,-0.08 -0.24,-0.08 -0.13,0 -0.23,0.05 -0.31,0.14 -0.08,0.09 -0.12,0.24 -0.12,0.45 0,0.22 0.04,0.37 0.12,0.47 0.08,0.09 0.18,0.14 0.3,0.14 0.1,0 0.18,-0.03 0.25,-0.09 0.06,-0.06 0.11,-0.15 0.14,-0.28zm0.7 -1.09l1.22 0 0 1.73 -0.35 0 0 -1.44 -0.52 0 0 0.74c0,0.21 -0.01,0.36 -0.03,0.44 -0.01,0.09 -0.04,0.15 -0.1,0.2 -0.05,0.04 -0.14,0.07 -0.26,0.07 -0.04,0 -0.11,-0.01 -0.22,-0.01l0 -0.28 0.08 0.01c0.07,0 0.12,-0.01 0.15,-0.03 0.02,-0.02 0.03,-0.07 0.03,-0.15l0 -0.3 0 -0.98z"/>
  </g>
  <g id="_2353438638256">
   <polygon class="fil1" points="23.83,31.24 31.78,31.24 31.78,34.71 23.83,34.71 "/>
   <path class="fil2" d="M24.55 33.84l0.6 -0.91 -0.54 -0.82 0.41 0 0.34 0.51 0.34 -0.51 0.41 0 -0.55 0.83 0.6 0.9 -0.42 0 -0.38 -0.59 -0.39 0.59 -0.42 0zm3.35 0l-0.38 0 -0.15 -0.4 -0.69 0 -0.14 0.4 -0.38 0 0.68 -1.73 0.37 0 0.69 1.73zm-0.64 -0.69l-0.24 -0.64 -0.23 0.64 0.47 0zm1.88 0.05l0.34 0.1c-0.06,0.19 -0.14,0.34 -0.26,0.43 -0.12,0.09 -0.28,0.14 -0.46,0.14 -0.23,0 -0.42,-0.08 -0.57,-0.24 -0.15,-0.16 -0.22,-0.37 -0.22,-0.64 0,-0.29 0.07,-0.52 0.22,-0.68 0.15,-0.16 0.34,-0.24 0.59,-0.24 0.21,0 0.38,0.07 0.51,0.19 0.08,0.08 0.14,0.18 0.18,0.32l-0.34 0.08c-0.03,-0.09 -0.07,-0.16 -0.13,-0.21 -0.07,-0.05 -0.15,-0.08 -0.24,-0.08 -0.13,0 -0.23,0.05 -0.31,0.14 -0.08,0.09 -0.12,0.24 -0.12,0.45 0,0.22 0.04,0.37 0.11,0.47 0.08,0.09 0.19,0.14 0.31,0.14 0.1,0 0.18,-0.03 0.24,-0.09 0.07,-0.06 0.12,-0.15 0.15,-0.28zm0.7 -1.09l1.21 0 0 1.73 -0.35 0 0 -1.44 -0.52 0 0 0.74c0,0.21 0,0.36 -0.02,0.44 -0.01,0.09 -0.05,0.15 -0.1,0.2 -0.06,0.04 -0.14,0.07 -0.26,0.07 -0.04,0 -0.11,-0.01 -0.22,-0.01l0 -0.28 0.08 0.01c0.07,0 0.12,-0.01 0.14,-0.03 0.03,-0.02 0.04,-0.07 0.04,-0.15l0 -0.3 0 -0.98z"/>
  </g>
  <g id="_2353438638400">
   <polygon class="fil1" points="31.78,27.76 39.72,27.76 39.72,31.24 31.78,31.24 "/>
   <path class="fil2" d="M32.5 30.37l0.59 -0.91 -0.54 -0.83 0.41 0 0.34 0.52 0.34 -0.52 0.41 0 -0.54 0.83 0.6 0.91 -0.43 0 -0.38 -0.59 -0.38 0.59 -0.42 0zm3.35 0l-0.38 0 -0.15 -0.4 -0.7 0 -0.14 0.4 -0.37 0 0.67 -1.74 0.37 0 0.7 1.74zm-0.65 -0.69l-0.24 -0.64 -0.23 0.64 0.47 0zm1.88 0.05l0.34 0.1c-0.05,0.19 -0.14,0.33 -0.26,0.43 -0.12,0.09 -0.27,0.14 -0.46,0.14 -0.23,0 -0.42,-0.08 -0.57,-0.24 -0.15,-0.16 -0.22,-0.37 -0.22,-0.64 0,-0.29 0.07,-0.52 0.22,-0.68 0.15,-0.16 0.35,-0.24 0.59,-0.24 0.21,0 0.39,0.07 0.52,0.19 0.08,0.08 0.14,0.18 0.18,0.32l-0.35 0.08c-0.02,-0.09 -0.06,-0.16 -0.13,-0.21 -0.06,-0.05 -0.14,-0.08 -0.24,-0.08 -0.13,0 -0.23,0.05 -0.31,0.14 -0.08,0.09 -0.12,0.24 -0.12,0.45 0,0.22 0.04,0.37 0.12,0.47 0.08,0.09 0.18,0.14 0.31,0.14 0.09,0 0.17,-0.03 0.24,-0.09 0.06,-0.06 0.11,-0.15 0.14,-0.28zm0.7 -1.1l1.22 0 0 1.74 -0.35 0 0 -1.44 -0.52 0 0 0.74c0,0.21 -0.01,0.36 -0.02,0.44 -0.02,0.08 -0.05,0.15 -0.11,0.2 -0.05,0.04 -0.14,0.07 -0.25,0.07 -0.05,0 -0.12,-0.01 -0.23,-0.01l0 -0.28 0.08 0.01c0.07,0 0.12,-0.01 0.15,-0.03 0.02,-0.02 0.04,-0.07 0.04,-0.15l-0.01 -0.3 0 -0.99z"/>
  </g>
  <g id="_2353438639360">
   <polygon class="fil1" points="39.72,31.24 47.66,31.24 47.66,34.71 39.72,34.71 "/>
   <path class="fil2" d="M40.44 33.84l0.6 -0.91 -0.54 -0.82 0.4 0 0.35 0.51 0.34 -0.51 0.41 0 -0.55 0.83 0.6 0.9 -0.42 0 -0.39 -0.59 -0.38 0.59 -0.42 0zm3.35 0l-0.38 0 -0.15 -0.4 -0.69 0 -0.15 0.4 -0.37 0 0.68 -1.73 0.37 0 0.69 1.73zm-0.64 -0.69l-0.24 -0.64 -0.24 0.64 0.48 0zm1.87 0.05l0.34 0.1c-0.05,0.19 -0.13,0.34 -0.26,0.43 -0.12,0.09 -0.27,0.14 -0.46,0.14 -0.23,0 -0.42,-0.08 -0.56,-0.24 -0.15,-0.16 -0.23,-0.37 -0.23,-0.64 0,-0.29 0.08,-0.52 0.23,-0.68 0.15,-0.16 0.34,-0.24 0.58,-0.24 0.22,0 0.39,0.07 0.52,0.19 0.08,0.08 0.14,0.18 0.18,0.32l-0.35 0.08c-0.02,-0.09 -0.06,-0.16 -0.13,-0.21 -0.06,-0.05 -0.14,-0.08 -0.23,-0.08 -0.13,0 -0.24,0.05 -0.32,0.14 -0.08,0.09 -0.12,0.24 -0.12,0.45 0,0.22 0.04,0.37 0.12,0.47 0.08,0.09 0.18,0.14 0.31,0.14 0.09,0 0.17,-0.03 0.24,-0.09 0.07,-0.06 0.12,-0.15 0.14,-0.28zm0.71 -1.09l1.21 0 0 1.73 -0.35 0 0 -1.44 -0.52 0 0 0.74c0,0.21 -0.01,0.36 -0.02,0.44 -0.01,0.09 -0.05,0.15 -0.1,0.2 -0.06,0.04 -0.14,0.07 -0.26,0.07 -0.04,0 -0.12,-0.01 -0.22,-0.01l0 -0.28 0.07 0.01c0.08,0 0.13,-0.01 0.15,-0.03 0.03,-0.02 0.04,-0.07 0.04,-0.15l0 -0.3 0 -0.98z"/>
  </g>
  <g id="_2353438642000">
   <polygon class="fil1" points="0,34.71 7.94,34.71 7.94,38.18 0,38.18 "/>
   <path class="fil2" d="M0.72 37.31l0.6 -0.9 -0.54 -0.83 0.4 0 0.35 0.51 0.34 -0.51 0.41 0 -0.55 0.83 0.6 0.9 -0.42 0 -0.38 -0.59 -0.39 0.59 -0.42 0zm3.35 0l-0.38 0 -0.15 -0.4 -0.69 0 -0.15 0.4 -0.37 0 0.68 -1.73 0.37 0 0.69 1.73zm-0.64 -0.69l-0.24 -0.64 -0.23 0.64 0.47 0zm1.88 0.05l0.33 0.1c-0.05,0.19 -0.13,0.34 -0.26,0.43 -0.12,0.09 -0.27,0.14 -0.46,0.14 -0.23,0 -0.41,-0.08 -0.56,-0.24 -0.15,-0.16 -0.23,-0.37 -0.23,-0.64 0,-0.29 0.08,-0.52 0.23,-0.68 0.15,-0.16 0.34,-0.24 0.59,-0.24 0.21,0 0.38,0.07 0.51,0.19 0.08,0.08 0.14,0.18 0.18,0.32l-0.35 0.08c-0.02,-0.08 -0.06,-0.16 -0.12,-0.21 -0.07,-0.05 -0.15,-0.08 -0.24,-0.08 -0.13,0 -0.23,0.05 -0.31,0.14 -0.08,0.09 -0.12,0.24 -0.12,0.45 0,0.22 0.03,0.38 0.11,0.47 0.08,0.09 0.18,0.14 0.31,0.14 0.09,0 0.17,-0.03 0.24,-0.09 0.07,-0.06 0.12,-0.15 0.15,-0.28zm0.7 -1.09l1.21 0 0 1.73 -0.35 0 0 -1.44 -0.52 0 0 0.74c0,0.21 -0.01,0.36 -0.02,0.44 -0.01,0.09 -0.05,0.15 -0.1,0.2 -0.06,0.04 -0.14,0.07 -0.26,0.07 -0.04,0 -0.11,-0.01 -0.22,-0.01l0 -0.27 0.08 0c0.07,0 0.12,-0.01 0.14,-0.03 0.03,-0.02 0.04,-0.07 0.04,-0.15l0 -0.3 0 -0.98z"/>
  </g>
  <g id="_2353438644736">
   <polygon class="fil1" points="15.89,34.71 23.83,34.71 23.83,38.18 15.89,38.18 "/>
   <path class="fil2" d="M16.61 37.31l0.6 -0.9 -0.55 -0.83 0.41 0 0.34 0.51 0.34 -0.51 0.41 0 -0.54 0.83 0.6 0.9 -0.42 0 -0.39 -0.59 -0.38 0.59 -0.42 0zm3.35 0l-0.38 0 -0.15 -0.4 -0.69 0 -0.15 0.4 -0.37 0 0.67 -1.73 0.37 0 0.7 1.73zm-0.64 -0.69l-0.24 -0.64 -0.24 0.64 0.48 0zm1.87 0.05l0.34 0.1c-0.05,0.19 -0.14,0.34 -0.26,0.43 -0.12,0.09 -0.27,0.14 -0.46,0.14 -0.23,0 -0.42,-0.08 -0.57,-0.24 -0.14,-0.16 -0.22,-0.37 -0.22,-0.64 0,-0.29 0.08,-0.52 0.23,-0.68 0.14,-0.16 0.34,-0.24 0.58,-0.24 0.22,0 0.39,0.07 0.52,0.19 0.08,0.08 0.14,0.18 0.18,0.32l-0.35 0.08c-0.02,-0.08 -0.06,-0.16 -0.13,-0.21 -0.06,-0.05 -0.14,-0.08 -0.23,-0.08 -0.13,0 -0.24,0.05 -0.32,0.14 -0.08,0.09 -0.12,0.24 -0.12,0.45 0,0.22 0.04,0.38 0.12,0.47 0.08,0.09 0.18,0.14 0.31,0.14 0.09,0 0.17,-0.03 0.24,-0.09 0.07,-0.06 0.11,-0.15 0.14,-0.28zm0.71 -1.09l1.21 0 0 1.73 -0.35 0 0 -1.44 -0.52 0 0 0.74c0,0.21 -0.01,0.36 -0.02,0.44 -0.02,0.09 -0.05,0.15 -0.1,0.2 -0.06,0.04 -0.15,0.07 -0.26,0.07 -0.04,0 -0.12,-0.01 -0.23,-0.01l0 -0.27 0.08 0c0.08,0 0.13,-0.01 0.15,-0.03 0.03,-0.02 0.04,-0.07 0.04,-0.15l0 -0.3 0 -0.98z"/>
  </g>
  <g id="_2353438647472">
   <polygon class="fil1" points="7.94,38.18 15.89,38.18 15.89,41.65 7.94,41.65 "/>
   <path class="fil2" d="M8.66 40.78l0.6 -0.9 -0.54 -0.83 0.41 0 0.34 0.51 0.34 -0.51 0.41 0 -0.54 0.83 0.59 0.9 -0.42 0 -0.38 -0.59 -0.38 0.59 -0.43 0zm3.35 0l-0.37 0 -0.15 -0.4 -0.7 0 -0.14 0.4 -0.37 0 0.67 -1.73 0.37 0 0.69 1.73zm-0.64 -0.69l-0.24 -0.64 -0.23 0.64 0.47 0zm1.88 0.05l0.34 0.1c-0.05,0.2 -0.14,0.34 -0.26,0.43 -0.12,0.09 -0.28,0.14 -0.46,0.14 -0.23,0 -0.42,-0.08 -0.57,-0.24 -0.15,-0.15 -0.22,-0.37 -0.22,-0.64 0,-0.29 0.07,-0.52 0.22,-0.68 0.15,-0.16 0.35,-0.23 0.59,-0.23 0.21,0 0.38,0.06 0.52,0.18 0.08,0.08 0.13,0.18 0.17,0.32l-0.34 0.09c-0.02,-0.09 -0.07,-0.16 -0.13,-0.22 -0.07,-0.05 -0.14,-0.07 -0.24,-0.07 -0.13,0 -0.23,0.04 -0.31,0.13 -0.08,0.1 -0.12,0.24 -0.12,0.45 0,0.22 0.04,0.38 0.12,0.47 0.08,0.09 0.18,0.14 0.3,0.14 0.1,0 0.18,-0.03 0.25,-0.09 0.06,-0.06 0.11,-0.15 0.14,-0.28zm0.7 -1.09l1.22 0 0 1.73 -0.35 0 0 -1.44 -0.52 0 0 0.74c0,0.21 -0.01,0.36 -0.03,0.44 -0.01,0.09 -0.04,0.15 -0.1,0.2 -0.05,0.05 -0.14,0.07 -0.26,0.07 -0.04,0 -0.11,-0.01 -0.22,-0.01l0 -0.27 0.08 0c0.07,0 0.12,-0.01 0.15,-0.03 0.02,-0.02 0.03,-0.07 0.03,-0.15l0 -0.3 0 -0.98z"/>
  </g>
  <g id="_2353438648048">
   <polygon class="fil1" points="23.83,38.18 31.78,38.18 31.78,41.65 23.83,41.65 "/>
   <path class="fil2" d="M24.55 40.78l0.6 -0.9 -0.54 -0.83 0.41 0 0.34 0.51 0.34 -0.51 0.41 0 -0.55 0.83 0.6 0.9 -0.42 0 -0.38 -0.59 -0.39 0.59 -0.42 0zm3.35 0l-0.38 0 -0.15 -0.4 -0.69 0 -0.14 0.4 -0.38 0 0.68 -1.73 0.37 0 0.69 1.73zm-0.64 -0.69l-0.24 -0.64 -0.23 0.64 0.47 0zm1.88 0.05l0.34 0.1c-0.06,0.2 -0.14,0.34 -0.26,0.43 -0.12,0.09 -0.28,0.14 -0.46,0.14 -0.23,0 -0.42,-0.08 -0.57,-0.24 -0.15,-0.15 -0.22,-0.37 -0.22,-0.64 0,-0.29 0.07,-0.52 0.22,-0.68 0.15,-0.16 0.34,-0.23 0.59,-0.23 0.21,0 0.38,0.06 0.51,0.18 0.08,0.08 0.14,0.18 0.18,0.32l-0.34 0.09c-0.03,-0.09 -0.07,-0.16 -0.13,-0.22 -0.07,-0.05 -0.15,-0.07 -0.24,-0.07 -0.13,0 -0.23,0.04 -0.31,0.13 -0.08,0.1 -0.12,0.24 -0.12,0.45 0,0.22 0.04,0.38 0.11,0.47 0.08,0.09 0.19,0.14 0.31,0.14 0.1,0 0.18,-0.03 0.24,-0.09 0.07,-0.06 0.12,-0.15 0.15,-0.28zm0.7 -1.09l1.21 0 0 1.73 -0.35 0 0 -1.44 -0.52 0 0 0.74c0,0.21 0,0.36 -0.02,0.44 -0.01,0.09 -0.05,0.15 -0.1,0.2 -0.06,0.05 -0.14,0.07 -0.26,0.07 -0.04,0 -0.11,-0.01 -0.22,-0.01l0 -0.27 0.08 0c0.07,0 0.12,-0.01 0.14,-0.03 0.03,-0.02 0.04,-0.07 0.04,-0.15l0 -0.3 0 -0.98z"/>
  </g>
  <g id="_2353438648288">
   <polygon class="fil1" points="31.78,34.71 39.72,34.71 39.72,38.18 31.78,38.18 "/>
   <path class="fil2" d="M32.5 37.31l0.59 -0.9 -0.54 -0.83 0.41 0 0.34 0.51 0.34 -0.51 0.41 0 -0.54 0.83 0.6 0.9 -0.43 0 -0.38 -0.59 -0.38 0.59 -0.42 0zm3.35 0l-0.38 0 -0.15 -0.4 -0.7 0 -0.14 0.4 -0.37 0 0.67 -1.73 0.37 0 0.7 1.73zm-0.65 -0.69l-0.24 -0.64 -0.23 0.64 0.47 0zm1.88 0.05l0.34 0.1c-0.05,0.19 -0.14,0.34 -0.26,0.43 -0.12,0.09 -0.27,0.14 -0.46,0.14 -0.23,0 -0.42,-0.08 -0.57,-0.24 -0.15,-0.16 -0.22,-0.37 -0.22,-0.64 0,-0.29 0.07,-0.52 0.22,-0.68 0.15,-0.16 0.35,-0.24 0.59,-0.24 0.21,0 0.39,0.07 0.52,0.19 0.08,0.08 0.14,0.18 0.18,0.32l-0.35 0.08c-0.02,-0.08 -0.06,-0.16 -0.13,-0.21 -0.06,-0.05 -0.14,-0.08 -0.24,-0.08 -0.13,0 -0.23,0.05 -0.31,0.14 -0.08,0.09 -0.12,0.24 -0.12,0.45 0,0.22 0.04,0.38 0.12,0.47 0.08,0.09 0.18,0.14 0.31,0.14 0.09,0 0.17,-0.03 0.24,-0.09 0.06,-0.06 0.11,-0.15 0.14,-0.28zm0.7 -1.09l1.22 0 0 1.73 -0.35 0 0 -1.44 -0.52 0 0 0.74c0,0.21 -0.01,0.36 -0.02,0.44 -0.02,0.09 -0.05,0.15 -0.11,0.2 -0.05,0.04 -0.14,0.07 -0.25,0.07 -0.05,0 -0.12,-0.01 -0.23,-0.01l0 -0.27 0.08 0c0.07,0 0.12,-0.01 0.15,-0.03 0.02,-0.02 0.04,-0.07 0.04,-0.15l-0.01 -0.3 0 -0.98z"/>
  </g>
  <g id="_2353438650736">
   <polygon class="fil1" points="39.72,38.18 47.66,38.18 47.66,41.65 39.72,41.65 "/>
   <path class="fil2" d="M40.44 40.78l0.6 -0.9 -0.54 -0.83 0.4 0 0.35 0.51 0.34 -0.51 0.41 0 -0.55 0.83 0.6 0.9 -0.42 0 -0.39 -0.59 -0.38 0.59 -0.42 0zm3.35 0l-0.38 0 -0.15 -0.4 -0.69 0 -0.15 0.4 -0.37 0 0.68 -1.73 0.37 0 0.69 1.73zm-0.64 -0.69l-0.24 -0.64 -0.24 0.64 0.48 0zm1.87 0.05l0.34 0.1c-0.05,0.2 -0.13,0.34 -0.26,0.43 -0.12,0.09 -0.27,0.14 -0.46,0.14 -0.23,0 -0.42,-0.08 -0.56,-0.24 -0.15,-0.15 -0.23,-0.37 -0.23,-0.64 0,-0.29 0.08,-0.52 0.23,-0.68 0.15,-0.16 0.34,-0.23 0.58,-0.23 0.22,0 0.39,0.06 0.52,0.18 0.08,0.08 0.14,0.18 0.18,0.32l-0.35 0.09c-0.02,-0.09 -0.06,-0.16 -0.13,-0.22 -0.06,-0.05 -0.14,-0.07 -0.23,-0.07 -0.13,0 -0.24,0.04 -0.32,0.13 -0.08,0.1 -0.12,0.24 -0.12,0.45 0,0.22 0.04,0.38 0.12,0.47 0.08,0.09 0.18,0.14 0.31,0.14 0.09,0 0.17,-0.03 0.24,-0.09 0.07,-0.06 0.12,-0.15 0.14,-0.28zm0.71 -1.09l1.21 0 0 1.73 -0.35 0 0 -1.44 -0.52 0 0 0.74c0,0.21 -0.01,0.36 -0.02,0.44 -0.01,0.09 -0.05,0.15 -0.1,0.2 -0.06,0.05 -0.14,0.07 -0.26,0.07 -0.04,0 -0.12,-0.01 -0.22,-0.01l0 -0.27 0.07 0c0.08,0 0.13,-0.01 0.15,-0.03 0.03,-0.02 0.04,-0.07 0.04,-0.15l0 -0.3 0 -0.98z"/>
  </g>
  <g id="_2353438651600">
   <polygon class="fil1" points="0,41.65 7.94,41.65 7.94,45.12 0,45.12 "/>
   <path class="fil2" d="M0.72 44.25l0.6 -0.9 -0.54 -0.83 0.4 0 0.35 0.51 0.34 -0.51 0.41 0 -0.55 0.83 0.6 0.9 -0.42 0 -0.38 -0.59 -0.39 0.59 -0.42 0zm3.35 0l-0.38 0 -0.15 -0.39 -0.69 0 -0.15 0.39 -0.37 0 0.68 -1.73 0.37 0 0.69 1.73zm-0.64 -0.69l-0.24 -0.64 -0.23 0.64 0.47 0zm1.88 0.05l0.33 0.11c-0.05,0.19 -0.13,0.33 -0.26,0.42 -0.12,0.09 -0.27,0.14 -0.46,0.14 -0.23,0 -0.41,-0.08 -0.56,-0.24 -0.15,-0.15 -0.23,-0.37 -0.23,-0.64 0,-0.29 0.08,-0.51 0.23,-0.67 0.15,-0.16 0.34,-0.24 0.59,-0.24 0.21,0 0.38,0.06 0.51,0.18 0.08,0.08 0.14,0.18 0.18,0.32l-0.35 0.09c-0.02,-0.09 -0.06,-0.16 -0.12,-0.22 -0.07,-0.05 -0.15,-0.07 -0.24,-0.07 -0.13,0 -0.23,0.04 -0.31,0.13 -0.08,0.1 -0.12,0.25 -0.12,0.45 0,0.22 0.03,0.38 0.11,0.47 0.08,0.09 0.18,0.14 0.31,0.14 0.09,0 0.17,-0.03 0.24,-0.09 0.07,-0.06 0.12,-0.15 0.15,-0.28zm0.7 -1.09l1.21 0 0 1.73 -0.35 0 0 -1.44 -0.52 0 0 0.74c0,0.21 -0.01,0.36 -0.02,0.44 -0.01,0.09 -0.05,0.15 -0.1,0.2 -0.06,0.05 -0.14,0.07 -0.26,0.07 -0.04,0 -0.11,0 -0.22,-0.01l0 -0.27 0.08 0c0.07,0 0.12,-0.01 0.14,-0.03 0.03,-0.02 0.04,-0.07 0.04,-0.15l0 -0.29 0 -0.99z"/>
  </g>
  <g id="_2353438650688">
   <polygon class="fil1" points="15.89,41.65 23.83,41.65 23.83,45.12 15.89,45.12 "/>
   <path class="fil2" d="M16.61 44.25l0.6 -0.9 -0.55 -0.83 0.41 0 0.34 0.51 0.34 -0.51 0.41 0 -0.54 0.83 0.6 0.9 -0.42 0 -0.39 -0.59 -0.38 0.59 -0.42 0zm3.35 0l-0.38 0 -0.15 -0.39 -0.69 0 -0.15 0.39 -0.37 0 0.67 -1.73 0.37 0 0.7 1.73zm-0.64 -0.69l-0.24 -0.64 -0.24 0.64 0.48 0zm1.87 0.05l0.34 0.11c-0.05,0.19 -0.14,0.33 -0.26,0.42 -0.12,0.09 -0.27,0.14 -0.46,0.14 -0.23,0 -0.42,-0.08 -0.57,-0.24 -0.14,-0.15 -0.22,-0.37 -0.22,-0.64 0,-0.29 0.08,-0.51 0.23,-0.67 0.14,-0.16 0.34,-0.24 0.58,-0.24 0.22,0 0.39,0.06 0.52,0.18 0.08,0.08 0.14,0.18 0.18,0.32l-0.35 0.09c-0.02,-0.09 -0.06,-0.16 -0.13,-0.22 -0.06,-0.05 -0.14,-0.07 -0.23,-0.07 -0.13,0 -0.24,0.04 -0.32,0.13 -0.08,0.1 -0.12,0.25 -0.12,0.45 0,0.22 0.04,0.38 0.12,0.47 0.08,0.09 0.18,0.14 0.31,0.14 0.09,0 0.17,-0.03 0.24,-0.09 0.07,-0.06 0.11,-0.15 0.14,-0.28zm0.71 -1.09l1.21 0 0 1.73 -0.35 0 0 -1.44 -0.52 0 0 0.74c0,0.21 -0.01,0.36 -0.02,0.44 -0.02,0.09 -0.05,0.15 -0.1,0.2 -0.06,0.05 -0.15,0.07 -0.26,0.07 -0.04,0 -0.12,0 -0.23,-0.01l0 -0.27 0.08 0c0.08,0 0.13,-0.01 0.15,-0.03 0.03,-0.02 0.04,-0.07 0.04,-0.15l0 -0.29 0 -0.99z"/>
  </g>
  <g id="_2353438654912">
   <polygon class="fil1" points="7.94,45.12 15.89,45.12 15.89,48.59 7.94,48.59 "/>
   <path class="fil2" d="M8.66 47.72l0.6 -0.9 -0.54 -0.83 0.41 0 0.34 0.51 0.34 -0.51 0.41 0 -0.54 0.83 0.59 0.9 -0.42 0 -0.38 -0.59 -0.38 0.59 -0.43 0zm3.35 0l-0.37 0 -0.15 -0.39 -0.7 0 -0.14 0.39 -0.37 0 0.67 -1.73 0.37 0 0.69 1.73zm-0.64 -0.69l-0.24 -0.64 -0.23 0.64 0.47 0zm1.88 0.05l0.34 0.11c-0.05,0.19 -0.14,0.33 -0.26,0.42 -0.12,0.09 -0.28,0.14 -0.46,0.14 -0.23,0 -0.42,-0.08 -0.57,-0.24 -0.15,-0.15 -0.22,-0.37 -0.22,-0.64 0,-0.29 0.07,-0.51 0.22,-0.67 0.15,-0.16 0.35,-0.24 0.59,-0.24 0.21,0 0.38,0.06 0.52,0.18 0.08,0.08 0.13,0.19 0.17,0.32l-0.34 0.09c-0.02,-0.09 -0.07,-0.16 -0.13,-0.22 -0.07,-0.05 -0.14,-0.07 -0.24,-0.07 -0.13,0 -0.23,0.04 -0.31,0.13 -0.08,0.1 -0.12,0.25 -0.12,0.45 0,0.22 0.04,0.38 0.12,0.47 0.08,0.09 0.18,0.14 0.3,0.14 0.1,0 0.18,-0.03 0.25,-0.09 0.06,-0.06 0.11,-0.15 0.14,-0.28zm0.7 -1.09l1.22 0 0 1.73 -0.35 0 0 -1.44 -0.52 0 0 0.74c0,0.21 -0.01,0.36 -0.03,0.44 -0.01,0.09 -0.04,0.15 -0.1,0.2 -0.05,0.05 -0.14,0.07 -0.26,0.07 -0.04,0 -0.11,0 -0.22,-0.01l0 -0.27 0.08 0c0.07,0 0.12,-0.01 0.15,-0.03 0.02,-0.02 0.03,-0.07 0.03,-0.15l0 -0.29 0 -0.99z"/>
  </g>
  <g id="_2353438655920">
   <polygon class="fil1" points="23.83,45.12 31.78,45.12 31.78,48.59 23.83,48.59 "/>
   <path class="fil2" d="M24.55 47.72l0.6 -0.9 -0.54 -0.83 0.41 0 0.34 0.51 0.34 -0.51 0.41 0 -0.55 0.83 0.6 0.9 -0.42 0 -0.38 -0.59 -0.39 0.59 -0.42 0zm3.35 0l-0.38 0 -0.15 -0.39 -0.69 0 -0.14 0.39 -0.38 0 0.68 -1.73 0.37 0 0.69 1.73zm-0.64 -0.69l-0.24 -0.64 -0.23 0.64 0.47 0zm1.88 0.05l0.34 0.11c-0.06,0.19 -0.14,0.33 -0.26,0.42 -0.12,0.09 -0.28,0.14 -0.46,0.14 -0.23,0 -0.42,-0.08 -0.57,-0.24 -0.15,-0.15 -0.22,-0.37 -0.22,-0.64 0,-0.29 0.07,-0.51 0.22,-0.67 0.15,-0.16 0.34,-0.24 0.59,-0.24 0.21,0 0.38,0.06 0.51,0.18 0.08,0.08 0.14,0.19 0.18,0.32l-0.34 0.09c-0.03,-0.09 -0.07,-0.16 -0.13,-0.22 -0.07,-0.05 -0.15,-0.07 -0.24,-0.07 -0.13,0 -0.23,0.04 -0.31,0.13 -0.08,0.1 -0.12,0.25 -0.12,0.45 0,0.22 0.04,0.38 0.11,0.47 0.08,0.09 0.19,0.14 0.31,0.14 0.1,0 0.18,-0.03 0.24,-0.09 0.07,-0.06 0.12,-0.15 0.15,-0.28zm0.7 -1.09l1.21 0 0 1.73 -0.35 0 0 -1.44 -0.52 0 0 0.74c0,0.21 0,0.36 -0.02,0.44 -0.01,0.09 -0.05,0.15 -0.1,0.2 -0.06,0.05 -0.14,0.07 -0.26,0.07 -0.04,0 -0.11,0 -0.22,-0.01l0 -0.27 0.08 0c0.07,0 0.12,-0.01 0.14,-0.03 0.03,-0.02 0.04,-0.07 0.04,-0.15l0 -0.29 0 -0.99z"/>
  </g>
  <g id="_2353438656640">
   <polygon class="fil1" points="31.78,41.65 39.72,41.65 39.72,45.12 31.78,45.12 "/>
   <path class="fil2" d="M32.5 44.25l0.59 -0.9 -0.54 -0.83 0.41 0 0.34 0.51 0.34 -0.51 0.41 0 -0.54 0.83 0.6 0.9 -0.43 0 -0.38 -0.59 -0.38 0.59 -0.42 0zm3.35 0l-0.38 0 -0.15 -0.39 -0.7 0 -0.14 0.39 -0.37 0 0.67 -1.73 0.37 0 0.7 1.73zm-0.65 -0.69l-0.24 -0.64 -0.23 0.64 0.47 0zm1.88 0.05l0.34 0.11c-0.05,0.19 -0.14,0.33 -0.26,0.42 -0.12,0.09 -0.27,0.14 -0.46,0.14 -0.23,0 -0.42,-0.08 -0.57,-0.24 -0.15,-0.15 -0.22,-0.37 -0.22,-0.64 0,-0.29 0.07,-0.51 0.22,-0.67 0.15,-0.16 0.35,-0.24 0.59,-0.24 0.21,0 0.39,0.06 0.52,0.18 0.08,0.08 0.14,0.18 0.18,0.32l-0.35 0.09c-0.02,-0.09 -0.06,-0.16 -0.13,-0.22 -0.06,-0.05 -0.14,-0.07 -0.24,-0.07 -0.13,0 -0.23,0.04 -0.31,0.13 -0.08,0.1 -0.12,0.25 -0.12,0.45 0,0.22 0.04,0.38 0.12,0.47 0.08,0.09 0.18,0.14 0.31,0.14 0.09,0 0.17,-0.03 0.24,-0.09 0.06,-0.06 0.11,-0.15 0.14,-0.28zm0.7 -1.09l1.22 0 0 1.73 -0.35 0 0 -1.44 -0.52 0 0 0.74c0,0.21 -0.01,0.36 -0.02,0.44 -0.02,0.09 -0.05,0.15 -0.11,0.2 -0.05,0.05 -0.14,0.07 -0.25,0.07 -0.05,0 -0.12,0 -0.23,-0.01l0 -0.27 0.08 0c0.07,0 0.12,-0.01 0.15,-0.03 0.02,-0.02 0.04,-0.07 0.04,-0.15l-0.01 -0.29 0 -0.99z"/>
  </g>
  <g id="_2353438658080">
   <polygon class="fil1" points="39.72,45.12 47.66,45.12 47.66,48.59 39.72,48.59 "/>
   <path class="fil2" d="M40.44 47.72l0.6 -0.9 -0.54 -0.83 0.4 0 0.35 0.51 0.34 -0.51 0.41 0 -0.55 0.83 0.6 0.9 -0.42 0 -0.39 -0.59 -0.38 0.59 -0.42 0zm3.35 0l-0.38 0 -0.15 -0.39 -0.69 0 -0.15 0.39 -0.37 0 0.68 -1.73 0.37 0 0.69 1.73zm-0.64 -0.69l-0.24 -0.64 -0.24 0.64 0.48 0zm1.87 0.05l0.34 0.11c-0.05,0.19 -0.13,0.33 -0.26,0.42 -0.12,0.09 -0.27,0.14 -0.46,0.14 -0.23,0 -0.42,-0.08 -0.56,-0.24 -0.15,-0.15 -0.23,-0.37 -0.23,-0.64 0,-0.29 0.08,-0.51 0.23,-0.67 0.15,-0.16 0.34,-0.24 0.58,-0.24 0.22,0 0.39,0.06 0.52,0.18 0.08,0.08 0.14,0.19 0.18,0.32l-0.35 0.09c-0.02,-0.09 -0.06,-0.16 -0.13,-0.22 -0.06,-0.05 -0.14,-0.07 -0.23,-0.07 -0.13,0 -0.24,0.04 -0.32,0.13 -0.08,0.1 -0.12,0.25 -0.12,0.45 0,0.22 0.04,0.38 0.12,0.47 0.08,0.09 0.18,0.14 0.31,0.14 0.09,0 0.17,-0.03 0.24,-0.09 0.07,-0.06 0.12,-0.15 0.14,-0.28zm0.71 -1.09l1.21 0 0 1.73 -0.35 0 0 -1.44 -0.52 0 0 0.74c0,0.21 -0.01,0.36 -0.02,0.44 -0.01,0.09 -0.05,0.15 -0.1,0.2 -0.06,0.05 -0.14,0.07 -0.26,0.07 -0.04,0 -0.12,0 -0.22,-0.01l0 -0.27 0.07 0c0.08,0 0.13,-0.01 0.15,-0.03 0.03,-0.02 0.04,-0.07 0.04,-0.15l0 -0.29 0 -0.99z"/>
  </g>
 </g>
</svg>
