<?xml version="1.0" encoding="UTF-8"?>
<!DOCTYPE svg PUBLIC "-//W3C//DTD SVG 1.1//EN" "http://www.w3.org/Graphics/SVG/1.1/DTD/svg11.dtd">
<!-- Creator: CorelDRAW -->
<svg xmlns="http://www.w3.org/2000/svg" xml:space="preserve" width="103px" height="45px" version="1.1" style="shape-rendering:geometricPrecision; text-rendering:geometricPrecision; image-rendering:optimizeQuality; fill-rule:evenodd; clip-rule:evenodd"
viewBox="0 0 2.68 1.17"
 xmlns:xlink="http://www.w3.org/1999/xlink"
 xmlns:xodm="http://www.corel.com/coreldraw/odm/2003">
 <defs>
  <style type="text/css">
   <![CDATA[
    .fil0 {fill:black}
    .fil1 {fill:white;fill-rule:nonzero}
   ]]>
  </style>
 </defs>
 <g id="Слой_x0020_1">
  <metadata id="CorelCorpID_0Corel-Layer"/>
  <g id="_2352834266944">
   <polygon class="fil0" points="0,0 2.68,0 2.68,1.17 0,1.17 "/>
   <path class="fil1" d="M0.24 0.88l0.2 -0.31 -0.18 -0.28 0.14 0 0.11 0.18 0.12 -0.18 0.14 0 -0.19 0.28 0.21 0.31 -0.15 0 -0.13 -0.2 -0.13 0.2 -0.14 0zm1.13 0l-0.12 0 -0.05 -0.14 -0.24 0 -0.05 0.14 -0.12 0 0.22 -0.59 0.13 0 0.23 0.59zm-0.21 -0.23l-0.08 -0.22 -0.08 0.22 0.16 0zm0.63 0.01l0.11 0.04c-0.01,0.06 -0.04,0.11 -0.08,0.14 -0.04,0.03 -0.1,0.05 -0.16,0.05 -0.08,0 -0.14,-0.03 -0.19,-0.08 -0.05,-0.05 -0.08,-0.13 -0.08,-0.22 0,-0.1 0.03,-0.17 0.08,-0.23 0.05,-0.05 0.12,-0.08 0.2,-0.08 0.07,0 0.13,0.02 0.17,0.07 0.03,0.02 0.05,0.06 0.06,0.1l-0.11 0.03c-0.01,-0.03 -0.03,-0.05 -0.05,-0.07 -0.02,-0.02 -0.05,-0.03 -0.08,-0.03 -0.04,0 -0.08,0.02 -0.1,0.05 -0.03,0.03 -0.04,0.08 -0.04,0.15 0,0.08 0.01,0.13 0.04,0.16 0.02,0.03 0.06,0.05 0.1,0.05 0.03,0 0.06,-0.01 0.08,-0.03 0.02,-0.02 0.04,-0.05 0.05,-0.1zm0.24 -0.37l0.41 0 0 0.59 -0.12 0 0 -0.49 -0.18 0 0 0.25c0,0.07 0,0.12 0,0.15 -0.01,0.03 -0.02,0.05 -0.04,0.07 -0.02,0.01 -0.05,0.02 -0.09,0.02 -0.01,0 -0.03,0 -0.07,0l0 -0.09 0.03 0c0.02,0 0.04,-0.01 0.04,-0.01 0.01,-0.01 0.02,-0.03 0.02,-0.05l0 -0.1 0 -0.34z"/>
  </g>
 </g>
</svg>
